<svg viewBox="0 0 231 442" fill="none" xmlns="http://www.w3.org/2000/svg"><path fill-rule="evenodd" clip-rule="evenodd" d="M-297.978 416.576l-8.937-14.909 59.813-108.177 9.542-17.103 4.206-7.517 5.126-9.144c5.33-9.47 11.078-19.493 17.275-29.283a377.315 377.315 0 012.643-4.118 216.785 216.785 0 0111.702-16.145 204.479 204.479 0 0112.905-14.686c8.936-9.195 19.181-18.132 31.322-27.322 7.446-5.636 15.206-11.245 22.864-16.731l5.717-4.09c2.176-1.556 4.354-3.111 6.527-4.669l2.081-1.501c12.365-8.966 22.537-17.28 31.042-25.372 10.03-9.543 18.203-19.822 24.309-30.572l.634-1.132c6.17-11.162 10.742-23.967 13.588-38.061 2.495-12.352 4.137-25.878 5.166-42.567l.888-14.576c.595-9.657 1.244-19.47 2.101-29.028 1.37-15.275 3.56-28.811 6.692-41.38 3.159-12.606 7.657-25.248 13.367-37.567 5.046-10.8 10.608-21.386 15.992-31.349l2.043-3.769a13810.467 13810.467 0 0117.08-31.229l60.066-108.662 17.34-.284-62.52 113.073a15458.92 15458.92 0 00-8.155 14.881l-6.383 11.675-4.305 7.889-1.428 2.634C5.981-132.475.708-122.259-4.056-111.518c-5.5 12.486-9.617 25.493-12.235 38.657-2.529 12.721-4.14 26.683-4.924 42.687-.356 7.251-.619 14.645-.854 21.937l-.438 13.82-.29 8.678a423.71 423.71 0 01-.26 6.029c-.697 13.828-2.029 25.885-4.048 36.706-2.542 13.624-6.78 25.99-12.601 36.767l-.58 1.06c-6.057 10.9-14.383 21.28-24.747 30.854-9.21 8.507-20.24 17.089-33.72 26.24a2201.324 2201.324 0 01-8.926 6.026l-10.239 6.875c-5.796 3.899-11.662 7.87-17.364 11.837-13.044 9.076-23.949 17.75-33.337 26.518a184.977 184.977 0 00-26.161 30.439c-7.485 10.984-14.167 22.529-20.275 33.371a9218.067 9218.067 0 00-13.883 24.806l-5.029 9.017-64.011 115.77zm-19.068-31.795l55.028-99.522c4.697-8.428 9.403-16.875 14.133-25.329l4.739-8.456c5.692-10.133 12.479-22.043 19.67-33.553 7.17-11.412 15.029-22.033 23.359-31.568 8.495-9.689 18.305-19.288 29.157-28.53 9.061-7.716 18.675-15.341 28.134-22.768l4.91-3.851c12.975-10.17 23.05-18.956 31.707-27.648 9.658-9.696 17.626-20.031 23.705-30.742l.688-1.23c6.163-11.155 10.911-23.853 14.111-37.74C-64.949 21.881-62.857 8.61-61.12-7.92l.633-6.005c1.277-12.06 2.645-24.38 4.43-36.43 2.106-14.212 5.09-27.73 8.866-40.176 3.781-12.39 8.564-24.462 14.623-36.907 5.984-12.246 12.307-24.03 18.248-34.942l5.027-9.201c2.68-4.902 5.36-9.803 8.043-14.696l5.147-9.385 19.409-35.111 34.817-62.968 17.338-.284-51.374 92.912-.566 1.026-5.804 10.494c-4.192 7.645-8.385 15.292-12.571 22.95l-6.309 11.565-2.014 3.716c-5.398 9.988-10.975 20.604-16.044 31.453-5.762 12.431-10.301 25.19-13.495 37.926-3.157 12.669-5.363 26.304-6.742 41.686-.967 10.773-1.669 21.86-2.327 32.68l-.666 10.978c-1.024 16.594-2.654 30.033-5.132 42.295-2.731 13.506-7.06 25.804-12.875 36.57l-.608 1.11c-6.064 10.914-14.292 21.35-24.458 31.017-8.933 8.497-19.698 17.229-32.909 26.697l-3.262 2.335-3.264 2.333c-9.486 6.781-19.296 13.792-28.624 20.853-12.22 9.252-22.539 18.255-31.55 27.525a205.503 205.503 0 00-12.346 13.992 217.29 217.29 0 00-12.508 17.149 376.82 376.82 0 00-2.69 4.19c-6.245 9.867-11.98 19.873-17.289 29.312l-.763 1.362c-2.869 5.11-5.73 10.22-8.582 15.324l-9.568 17.146-59.228 107.121-8.938-14.91zm-10.131-16.898l50.241-90.867c4.696-8.433 9.4-16.883 14.127-25.341l6.485-11.579c4.972-8.84 11.187-19.752 17.695-30.578a334.515 334.515 0 0112.047-18.539l1.635-2.328.41-.565a284.5 284.5 0 018.131-10.802c7.964-10.046 17.022-20.07 26.927-29.79a522.876 522.876 0 017.038-6.767l1.799-1.691c5.425-5.079 11.123-10.228 17.382-15.796l5.149-4.566.879-.782c11.418-10.165 20.357-18.825 28.008-27.125a177.005 177.005 0 004.334-4.888l1.049-1.232c.479-.568.972-1.132 1.442-1.702l.751-.937c5.886-7.237 11.019-14.68 15.306-22.24l.756-1.35c6.153-11.135 11.143-23.683 14.833-37.296a285.622 285.622 0 001.704-6.6l.437-1.799c2.174-9.06 4.177-19.164 6.168-31.079l.2-1.197c2.182-13.193 4.618-27.291 7.63-40.995.378-1.705.767-3.402 1.166-5.09 2.798-11.812 6.137-23.18 9.948-33.86 4.263-11.874 9.423-23.748 15.775-36.301 3.342-6.559 6.796-13.142 10.231-19.631l4.79-9.025 3.32-6.246L38.48-293.436l17.337-.285-53 95.85-5.82 10.629c-2.685 4.896-5.367 9.8-8.05 14.707-1.675 3.066-3.356 6.12-5.03 9.191l-1.996 3.676c-5.359 9.884-10.957 20.427-16.293 31.345-6.105 12.54-10.927 24.708-14.737 37.202-3.807 12.54-6.811 26.155-8.932 40.465-1.94 13.093-3.386 26.485-4.758 39.518l-.315 3c-1.728 16.451-3.809 29.645-6.546 41.526-3.157 13.705-7.839 26.228-13.912 37.221l-.144.259c-6.053 10.894-14.097 21.413-23.914 31.27-8.179 8.211-17.642 16.515-29.656 26.014l-1.96 1.543-4.735 3.713c-9.504 7.461-19.164 15.121-28.28 22.885-10.934 9.314-20.813 18.982-29.366 28.736-8.401 9.616-16.323 20.321-23.549 31.821-7.151 11.439-13.703 22.927-19.719 33.638a9936.426 9936.426 0 00-13.845 24.764l-5.053 9.065-54.446 98.474-8.938-14.908zm-1.189-1.984l-8.937-14.91 64.186-116.08 2.789-4.874 6.186-10.829a2477.87 2477.87 0 0110.407-18.053c7.211-12.268 14.158-23.004 21.234-32.821 7.411-10.277 15.786-20.689 24.889-30.947l1.549-1.734c8.53-9.513 17.26-18.602 24.344-25.865l4.447-4.557c7.448-7.666 16.526-17.262 24.958-27.306a222.334 222.334 0 004.771-5.904c6.544-8.335 12.29-16.832 17.111-25.356l.862-1.534c6.121-11.07 11.399-23.44 15.689-36.768 4.044-12.559 7.359-25.402 9.902-35.822l1.631-6.741c3.532-14.55 6.518-25.855 9.584-36.32 3.876-13.196 8.301-25.928 13.154-37.839 4.63-11.291 10.119-22.995 16.782-35.782 3.163-6.028 6.402-12.11 9.6-18.092l7.024-13.127 1.914-3.586 63.123-114.159 17.334-.286-67.31 121.733-3.466 6.529-3.313 6.232c-3.881 7.315-7.805 14.768-11.586 22.195-6.402 12.65-11.595 24.6-15.877 36.533a288.52 288.52 0 00-1.613 4.648c-3.698 10.94-6.911 22.537-9.569 34.544-2.015 9.167-3.768 18.497-5.362 27.619a1342.73 1342.73 0 00-1.548 9.042l-.95 5.685-.41 2.423c-1.984 11.589-3.981 21.423-6.15 30.24a282.41 282.41 0 01-1.698 6.569c-3.653 13.47-8.583 25.87-14.651 36.852l-.148.265c-6.047 10.885-13.855 21.548-23.21 31.696l-1.124 1.21c-7.557 8.094-16.405 16.599-27.659 26.59l-3.073 2.723c-10.637 9.435-19.637 17.61-28.33 26.132-9.96 9.775-19.076 19.86-27.093 29.975a278.803 278.803 0 00-4.056 5.257l-1.714 2.291a300.136 300.136 0 00-3.751 5.212c-4.362 6.182-8.618 12.696-12.848 19.683l-1.156 1.929c-6.913 11.569-13.385 23.016-18.321 31.823-6.325 11.285-12.603 22.561-18.882 33.838l-49.665 89.824zm-19.062-31.803l59.403-107.432 4.021-7.072 4.016-7.084a4955.275 4955.275 0 0111.198-19.69l1.311-2.27c6.937-11.977 13.04-21.889 19.108-31.036 7.044-10.611 14.832-21.356 23.148-31.938l1.42-1.801c8.059-10.185 16.274-19.988 22.831-27.728l3.391-4c6.75-7.988 15.046-18.003 23.003-28.504 8.04-10.612 14.862-20.93 20.809-31.485l.865-1.548.126-.228c6.176-11.172 11.603-23.017 16.592-36.21l.809-2.155c4.422-11.86 8.33-23.773 11.396-33.398l2.196-6.908c3.162-9.895 7.105-21.94 11.378-33.82 4.599-12.779 9.621-25.187 14.927-36.878l.867-1.896c4.667-10.148 10.014-20.844 16.73-33.465 2.39-4.476 4.793-8.943 7.198-13.406l3.61-6.693c2.633-4.882 5.266-9.761 7.88-14.634L-.8-292.788l17.33-.285-62.576 113.167-2.8 5.24-7.65 14.297a2452.638 2452.638 0 00-8.107 15.296c-6.691 12.842-12.205 24.6-16.86 35.951C-86.34-97.15-90.79-84.354-94.684-71.09l-.639 2.197c-3.59 12.446-6.694 24.832-9.113 34.804l-1.514 6.253c-2.54 10.397-5.841 23.17-9.835 35.579-4.103 12.745-9.117 24.605-14.912 35.275l-.83 1.511c-6.014 10.824-13.522 21.622-22.319 32.102-8.437 10.043-17.47 19.591-24.873 27.21l-5.654 5.797c-7.297 7.5-16.158 16.769-24.734 26.413-9.152 10.314-17.569 20.78-25.017 31.105-7.093 9.837-14.074 20.624-21.338 32.981-4.077 6.99-8.146 14.096-12.112 21.038l-1.693 2.964c-1.861 3.259-3.721 6.517-5.593 9.783l-63.633 115.079-8.934-14.905zm-10.128-16.89l73.449-132.838c1.652-2.744 3.293-5.496 4.932-8.252l2.457-4.135c4.127-6.953 8.395-14.143 12.726-21.148 6.237-10.089 13.045-20.407 20.259-30.702l1.448-2.059c6.924-9.804 14.088-19.485 20.097-27.504l6.048-8.05c6.145-8.199 13.578-18.272 20.707-28.576 7.953-11.485 14.843-22.523 20.992-33.662 6.176-11.17 11.857-22.858 17.368-35.73l.895-2.101c4.456-10.507 8.599-21.031 12.009-29.883l3.865-10.085c4.856-12.628 8.866-22.684 12.796-32.098 5.252-12.53 10.766-24.672 16.391-36.089 2.734-5.545 5.573-11.118 8.385-16.595l6.186-12.029a1550.69 1550.69 0 003.353-6.573l72.74-131.551 17.33-.284-57.831 104.588-3.865 7.186-3.874 7.185c-2.44 4.523-4.88 9.047-7.314 13.578l-3.644 6.804-1.248 2.353c-6.57 12.432-11.808 23.012-16.403 33.121-5.312 11.696-10.354 24.154-14.989 37.03l-.762 2.13c-4.042 11.358-7.718 22.605-10.684 31.897l-3.004 9.436c-3.109 9.689-6.98 21.324-11.317 32.788-4.681 12.38-9.976 24.023-15.747 34.628l-.974 1.772c-5.831 10.495-12.518 20.739-20.404 31.254l-.992 1.316c-6.286 8.298-13.292 16.99-22.442 27.836l-6.392 7.552c-6.546 7.762-14.334 17.131-21.787 26.616-8.374 10.66-16.194 21.448-23.244 32.069l-1.141 1.728c-6.091 9.271-12.273 19.399-19.345 31.689a3787.274 3787.274 0 00-7.481 13.133l-3.722 6.565a7740.268 7740.268 0 01-8.041 14.163l-58.851 106.432-8.935-14.905zm472.293-611.875L47.545-173.15l-4.48 8.185c-3.206 5.852-6.411 11.706-9.612 17.567l-4.797 8.797-1.228 2.264c-5.369 9.925-11.337 21.305-16.361 33.208C5.879-90.701 2.148-77.475-.023-63.816-2.057-51.03-3.246-36.838-3.658-20.432c-.129 5.143-.225 10.366-.31 15.524l-.204 12.716c-.091 5.51-.196 11.088-.34 16.576-.43 16.307-1.763 30.33-4.07 42.868-2.58 14.021-6.965 26.693-13.028 37.664l-.123.22c-6.05 10.889-14.385 21.25-24.776 30.793-9.386 8.624-20.49 17.161-33.945 26.103-5.68 3.779-11.507 7.573-17.213 11.276l-8.544 5.545a1803.463 1803.463 0 00-11.477 7.512c-13.588 8.978-24.905 17.417-34.599 25.801-10.419 9.01-19.611 19.038-27.323 29.81-7.754 10.893-14.459 22.414-20.55 33.241a9456.516 9456.516 0 00-12.764 22.818l-6.14 11.01-68.795 124.42-8.93-14.897 64.57-116.782.424-.761c6.133-10.995 12.281-22.022 18.483-33.052l1.938-3.429c5.545-9.775 11.57-20.005 18.245-29.793a183.07 183.07 0 0125.875-30.106c9.3-8.694 20.132-17.309 33.113-26.339 5.734-3.989 11.635-7.984 17.468-11.908l5.801-3.896c4.422-2.968 8.845-5.936 13.243-8.922l2.178-1.488c12.58-8.653 22.993-16.826 31.775-24.938 10.239-9.451 18.519-19.688 24.628-30.445l.616-1.099c6.17-11.169 10.643-24.035 13.293-38.24 2.035-10.908 3.377-23.052 4.078-36.971.1-1.989.188-4.013.262-6.076l.292-8.7.439-13.83c.235-7.269.496-14.639.85-21.861.78-15.903 2.378-29.771 4.888-42.394 2.596-13.039 6.669-25.904 12.103-38.237 4.891-11.04 10.363-21.583 17.02-33.864l2.713-4.986 4.6-8.425 4.987-9.113c2.478-4.521 4.923-8.977 7.303-13.31l63.03-113.988 17.311-.284zm8.964-.18l5.515 9.2-66.763 120.744-2.634 4.8c-3.617 6.594-7.238 13.193-10.853 19.802l-5.417 9.921c-5.701 10.472-12.217 22.723-17.39 35.606-4.873 12.229-8.307 25.623-10.206 39.811-1.706 12.74-2.664 27.055-2.93 43.76-.048 3.13-.09 6.262-.128 9.397l-.15 12.346c-.1 7.69-.227 15.486-.456 23.127-.484 16.104-1.9 30.077-4.33 42.718-2.612 13.564-6.886 25.9-12.71 36.684l-.615 1.122c-6.054 10.897-14.332 21.287-24.605 30.886-9.362 8.749-20.378 17.335-33.679 26.251-8.655 5.802-17.643 11.584-26.338 17.176-3.672 2.361-7.34 4.723-10.995 7.09-13.909 9.013-25.447 17.324-35.272 25.41-10.975 9.036-20.47 18.897-28.227 29.313-7.897 10.684-14.653 22.241-20.777 33.137a9227.698 9227.698 0 00-13.271 23.742l-5.622 10.09-67.427 121.947-12.695.21-2.389-3.982 69.353-125.431.512-.916a13837.296 13837.296 0 0118.388-32.901c6.083-10.808 12.769-22.293 20.434-33.059 7.619-10.641 16.705-20.554 27.005-29.459 9.623-8.322 20.872-16.712 34.391-25.647 3.782-2.499 7.636-5.014 11.456-7.497l11.404-7.403c4.79-3.114 9.635-6.279 14.38-9.435 13.57-9.021 24.753-17.622 34.191-26.295 10.275-9.443 18.577-19.68 24.694-30.448l.6-1.072c6.172-11.17 10.628-24.045 13.245-38.27C-4.283 54.995-2.94 40.87-2.506 24.45c.173-6.581.289-13.288.394-19.85l.15-9.425c.085-5.165.18-10.396.31-15.544.41-16.322 1.591-30.427 3.61-43.12 2.152-13.523 5.84-26.596 10.96-38.852 4.862-11.519 10.513-22.439 17.5-35.292 6.264-11.502 12.555-22.972 18.835-34.423l67.836-122.685 6.612-.107zm15.639 26.118L77.361-156.637a12997.252 12997.252 0 00-18.92 34.514l-1.394 2.563C51.455-109.253 45.74-98.247 41.18-86.433c-4.64 12.124-7.895 25.617-9.673 40.105C29.943-33.57 29.066-19.64 28.746-2.49l-.266 14.685c-.188 9.96-.419 20.086-.851 29.962-.694 15.86-2.315 29.717-4.954 42.368-2.875 13.79-7.425 26.377-13.522 37.416l-.135.243c-6.08 10.941-14.248 21.391-24.283 31.062-9.262 8.925-20.072 17.624-33.05 26.591-9.386 6.485-19.184 12.904-28.763 19.145l-8.17 5.322-2.075 1.359c-12.668 8.326-22.927 15.667-32.018 22.91l-1.323 1.057c-11.29 9.089-20.962 18.851-28.749 29.016-7.557 9.894-13.841 20.372-20.952 33.06a13709.156 13709.156 0 00-18.876 33.841l-62.689 113.376-17.339.286L-202.4 318.27l9.681-17.362a9957.22 9957.22 0 019.207-16.46l1.603-2.841c5.661-9.987 11.88-20.406 19.038-30.084 7.656-10.288 17.041-20.031 27.892-28.96l1.644-1.343c9.407-7.621 20.371-15.466 33.444-23.934 2.416-1.565 4.84-3.128 7.265-4.689l3.641-2.342c8.73-5.615 17.757-11.42 26.453-17.251 13.393-8.984 24.492-17.635 33.93-26.45 10.14-9.469 18.371-19.718 24.484-30.479l.633-1.13C2.691 103.769 7.203 90.928 9.927 76.778c2.45-12.726 3.878-26.803 4.365-43.036.23-7.643.357-15.435.457-23.12l.094-7.64c.057-4.717.112-9.432.186-14.139l.05-2.747c.317-15.444 1.255-28.809 2.86-40.779 1.878-14.027 5.27-27.262 10.083-39.333 4.778-11.905 10.728-23.289 16.105-33.213l1.184-2.18a8916.95 8916.95 0 0110.495-19.194l8.398-15.311 66.199-119.724 8.937 14.907zm10.141 16.877L73.228-113.947l-1.866 3.494c-5.239 9.837-10.882 20.758-15.221 32.287-4.523 12.016-7.733 25.531-9.545 40.17l-.213 1.763c-1.394 11.815-2.292 24.834-2.808 40.702l-.303 9.58c-.384 11.917-.831 24.054-1.595 35.84-1.012 15.57-2.911 29.274-5.808 41.894-3.12 13.599-7.81 26.118-13.937 37.208l-.146.264C15.683 140.239 7.65 150.763-2.09 160.538c-9.104 9.135-19.638 17.99-32.203 27.069-9.9 7.151-20.13 14.096-30.182 20.849l-6.006 4.029c-14.198 9.521-25.35 17.617-35.097 25.482-11.362 9.169-21.078 18.905-28.873 28.937-8.399 10.806-15.256 22.715-21.024 33.03-6.318 11.297-12.593 22.583-18.858 33.85l-57.952 104.811-17.331.286 62.131-112.37a13740.774 13740.774 0 0118.872-33.832l1.358-2.414c6.521-11.538 12.434-21.239 19.437-30.408 7.705-10.049 17.264-19.697 28.416-28.674l.704-.564.709-.565c9.526-7.577 20.325-15.261 33.827-24.068l4.992-3.254a4340.01 4340.01 0 009.913-6.473 1326.93 1326.93 0 0014.165-9.382c1.16-.782 2.3-1.569 3.454-2.354l2.979-2.024 1.486-1.02c13.064-9.024 23.957-17.79 33.303-26.798 9.89-9.532 17.995-19.814 24.11-30.581l.671-1.198c6.193-11.211 10.813-23.987 13.73-37.973 2.662-12.762 4.295-26.726 4.994-42.69.432-9.889.664-20.018.85-29.981l.268-14.717c.314-17.04 1.187-30.904 2.748-43.63 1.758-14.327 4.973-27.661 9.554-39.632 4.888-12.667 11.152-24.458 17.149-35.45 6.293-11.53 12.608-23.029 18.918-34.508l61.417-111.077 8.942 14.902zm10.116 16.907L88.136-105.704l-1.876 3.491c-5.268 9.829-10.942 20.74-15.294 32.253-4.517 11.947-7.807 25.415-9.777 40.027l-.218 1.64c-1.467 11.277-2.552 23.887-3.388 39.358l-.12 2.285a2612.88 2612.88 0 01-.824 15.292l-.157 2.689c-.133 2.243-.272 4.474-.416 6.699a905.62 905.62 0 01-.706 9.99 695.99 695.99 0 01-.394 4.897l-.354 4.1c-1.39 15.296-3.608 28.822-6.78 41.356-3.393 13.409-8.232 25.852-14.381 36.985-6.162 11.135-14.093 21.84-23.599 31.807-8.892 9.325-19.109 18.354-31.235 27.604a605.205 605.205 0 01-5.016 3.783c-8.291 6.191-16.865 12.294-25.199 18.154l-6.985 4.903c-9.32 6.564-17.246 12.407-24.279 17.906l-.75.588a379.42 379.42 0 00-7.383 5.943c-11.267 9.307-20.9 19.087-28.628 29.063-7.94 10.252-14.231 21.013-21.055 33.014l-71.961 130.149-17.33.284 57.4-103.813c6.257-11.253 12.53-22.536 18.849-33.833l1.201-2.142c5.477-9.734 11.915-20.675 19.655-30.636 7.695-9.902 17.301-19.527 28.551-28.608l1.358-1.09c9.345-7.463 20.073-15.216 33.597-24.286l6.033-4.048c10.095-6.783 20.36-13.751 30.212-20.873 12.657-9.145 23.27-18.067 32.447-27.277 9.575-9.606 17.52-19.931 23.64-30.71l.718-1.281c6.216-11.251 10.972-23.944 14.135-37.727C40.75 79.507 42.663 65.7 43.68 50.02c.847-13.04 1.305-26.49 1.718-39.602l.146-4.691.118-3.54c.553-15.523 1.491-28.29 2.928-39.937 1.787-14.466 4.96-27.827 9.431-39.71 4.814-12.79 11.279-24.881 16.975-35.536l75.672-136.855 8.929 14.904zm10.137 16.874l-66.688 120.61-2.522 4.673c-5.112 9.513-10.544 19.995-14.817 30.961-4.678 12.005-8.063 24.99-10.35 39.702l-.238 1.559c-1.733 11.477-3.09 23.963-4.356 40.082l-.448 5.732c-.948 12.02-2.093 25.442-3.645 38.394-1.801 15.017-4.351 28.36-7.798 40.797-3.657 13.206-8.644 25.575-14.825 36.762l-.156.279-.792 1.38c-.485.852-.967 1.703-1.47 2.55-4.709 7.903-10.228 15.6-16.468 22.96-.315.372-.619.747-.938 1.118l-.223.252a183.29 183.29 0 01-3.13 3.528c-8.667 9.512-18.553 18.728-30.226 28.174l-1.954 1.575c-9.47 7.597-19.305 15.018-30.883 23.597l-2.964 2.197c-13.056 9.705-22.893 17.484-31.707 25.069-11.181 9.626-20.353 19.236-28.038 29.381-7.861 10.378-14.355 21.58-20.867 33.107l-67.221 121.577-17.337.285 71.401-129.132 2.243-3.93c5.946-10.364 11.661-19.817 18.649-28.838 7.64-9.861 17.169-19.533 28.321-28.746a395.123 395.123 0 0110.074-8.038l1.198-.923c6.456-4.954 13.677-10.226 22.01-16.08l5.343-3.746c8.73-6.133 17.764-12.555 26.565-19.147a609.34 609.34 0 004.36-3.294c12.209-9.31 22.502-18.408 31.47-27.813 9.244-9.696 17.025-20.076 23.148-30.878l.753-1.343c6.233-11.283 11.135-23.886 14.57-37.46 3.199-12.636 5.433-26.265 6.833-41.667l.136-1.653a685.423 685.423 0 00.913-11.51c.14-1.962.275-3.932.403-5.909l.21-3.28.285-4.736.084-1.448c.215-3.776.424-7.566.627-11.383l.319-6.102c.872-16.16 2.018-29.189 3.59-40.841 1.95-14.464 5.202-27.782 9.666-39.59 4.838-12.8 11.336-24.863 17.063-35.497l70.895-128.218 8.932 14.901zm20.244 33.794l-57.11 103.288-1.93 3.536a1501.75 1501.75 0 00-3.747 6.912l-1.474 2.743-.854 1.606-1.441 2.72c-3.077 5.845-6.008 11.615-8.824 17.534l-.029.067c-4.989 12.727-8.969 25.786-11.831 38.815l-.487 2.251c-2.202 10.322-4.17 21.604-6.264 35.9L94.615 40.6c-.225 1.546-.448 3.069-.67 4.572l-.56 3.754-.384 2.53-.554 3.612-.284 1.806-.523 3.295-.319 1.963-.546 3.316-.305 1.8-.608 3.548c-.167.955-.34 1.907-.51 2.86-.133.74-.263 1.483-.399 2.221-2.655 14.485-5.87 27.468-9.823 39.691a219.063 219.063 0 01-3.325 9.527c-3.49 9.295-7.57 18.193-12.173 26.561l-.153.285c-5.64 10.117-12.307 20.038-19.906 29.478l-.955 1.177c-.51.623-1.01 1.251-1.528 1.87-8.223 9.838-17.454 19.422-28.225 29.3-9.593 8.802-19.755 17.534-29.429 25.733l-3.728 3.159c-12.061 10.246-21.147 18.428-29.283 26.362-9.467 9.238-18.378 19.392-26.525 30.239-6.526 10.083-12.547 20.571-17.82 29.97l-2.13 3.808-57.647 104.263-17.339.285 61.929-112.005 1.926-3.424c5.505-9.757 11.427-19.963 18.043-29.836a249.648 249.648 0 0127.396-29.325l1.699-1.538c8-7.196 17.021-14.735 28.785-24.052l1.7-1.343c10.705-8.449 22.098-17.543 32.86-26.811 11.28-9.712 20.902-19.177 29.416-28.939 8.906-10.208 16.581-21.072 22.817-32.296l.204-.367c6.268-11.349 11.453-23.778 15.41-36.945 3.735-12.423 6.64-25.676 8.88-40.514 1.928-12.797 3.448-25.66 5.104-40.88l.166-1.53c1.864-17.18 3.665-30.116 5.838-41.942a244.74 244.74 0 0110.61-39.086c5.384-11.762 11.573-23.276 17.967-35.012l61.332-110.92 8.932 14.901zm11.331 18.888l8.932 14.902-47.543 85.988c-5.804 10.49-11.475 20.797-16.927 31.265l-1.831 3.54c-5.418 11.952-10.317 24.482-14.575 37.282-3.355 11.824-6.498 24.29-9.593 38.056l-1.861 8.327c-2.473 11.053-5.044 22.34-7.842 33.487-3.525 14.039-7.376 26.676-11.772 38.634-4.45 12.096-9.694 23.722-15.6 34.582l-1.052 1.915c-6.17 11.104-13.378 22.027-21.431 32.472-7.768 10.079-16.374 20.02-26.31 30.391l-1.866 1.942c-7.777 8.071-15.614 15.878-24.71 24.874l-2.207 2.183c-10.474 10.353-19.692 19.935-28.208 29.327-8.527 10.265-16.501 20.92-23.73 31.713-6.317 10.514-12.386 21.349-18.092 31.652l-49.496 89.519-17.33.285 53.89-97.462c6.388-11.512 11.988-21.339 18.002-31.028 7.416-10.492 15.73-20.875 24.677-30.826l1.84-1.839c8.027-7.994 16.817-16.338 26.767-25.412l6.706-6.112c9.018-8.245 16.915-15.605 24.685-23.199 10.425-10.195 19.399-20.016 27.432-30.026a240.224 240.224 0 0011.867-16.113c.605-.899 1.193-1.803 1.785-2.709l.878-1.334c.615-.956 1.212-1.917 1.81-2.877l.82-1.308.572-.95.568-.951c.496-.827.995-1.653 1.48-2.483l.252-.445c.66-1.137 1.315-2.275 1.95-3.419l.255-.462c6.288-11.392 11.723-23.667 16.154-36.483 4.216-12.186 7.768-25.073 10.859-39.395 2.784-12.894 5.253-26.23 7.382-38.022l.525-2.915c2.689-14.953 5.4-28.235 8.274-40.552 3.783-13.047 8.269-25.709 13.335-37.635 5.609-11.283 11.623-22.301 17.368-32.688l52.911-95.691zm20.244 33.783l8.935 14.905-43.667 78.981A3667.385 3667.385 0 00173.495-13.4a535.689 535.689 0 00-16.64 36.087c-4.509 11.951-8.835 24.372-13.23 37.982l-4.098 13.166c-2.628 8.422-5.315 16.968-8.046 25.364-4.469 13.731-8.956 26.025-13.717 37.585-5.102 12.388-10.845 24.383-17.069 35.651a351.211 351.211 0 01-21.055 33.383C72.394 216.003 64.41 226.3 55.234 237.3c-6.913 8.289-14.04 16.626-21.004 24.751l-4.992 5.823C20.163 278.68 12 288.845 4.26 298.977a533.963 533.963 0 00-21.599 32.842l-1.73 3.055c-6.043 10.698-11.965 21.408-17.24 30.954l-38.801 70.181-17.34.285 43.019-77.805c4.459-8.067 8.86-15.997 13.31-23.832l1.705-2.984 1.71-2.974c.77-1.338 1.535-2.682 2.311-4.015a448.405 448.405 0 0122.473-32.096c8.177-9.859 17.085-19.993 26.474-30.12l8.819-9.51c6.194-6.689 12.473-13.51 18.563-20.319l.94-1.06.934-1.057c7.892-8.915 14.928-17.474 21.378-26.008l.963-1.28c.418-.56.844-1.119 1.259-1.678 7.637-10.305 14.597-20.985 20.661-31.85l.862-1.557c6.265-11.341 11.931-23.474 16.84-36.06 4.603-11.801 8.791-24.324 12.804-38.283.797-2.773 1.586-5.563 2.367-8.36.417-1.495.826-2.994 1.238-4.49.345-1.249.693-2.497 1.035-3.746.94-3.442 1.871-6.879 2.792-10.294l3.343-12.433c3.624-13.447 7.525-26.488 11.584-38.723a445.582 445.582 0 0115.555-36.423c5.393-10.185 10.871-20.162 16.854-30.986l44.21-79.959zM-94.755 436.33l-17.33.284 47.715-86.298c5.992-10.836 12.414-22.373 19.245-33.749 7.162-10.689 15.096-21.29 23.553-31.473 8.46-9.326 17.652-18.882 28.103-29.216l4.782-4.73c7.716-7.642 16.048-15.958 24.04-24.309 9.988-10.426 18.64-20.42 26.45-30.551 8.112-10.521 15.373-21.523 21.587-32.707l.289-.523c6.27-11.349 11.821-23.553 16.501-36.271 4.424-12.023 8.296-24.727 11.834-38.836 3.39-13.52 6.545-27.662 9.329-40.137l.718-3.195c2.997-13.209 6.024-25.17 9.22-36.436 4.225-12.697 9.097-25.16 14.462-37.001 5.992-11.65 12.268-23.064 18.708-34.704l46.985-84.979 8.93 14.898-47.016 85.044c-5.034 9.128-9.527 17.349-14.019 25.81l-.63 1.188a446.4 446.4 0 00-15.655 36.658c-4.083 12.307-7.995 25.385-11.629 38.869l-3.445 12.812c-.877 3.254-1.764 6.53-2.661 9.81a1314.008 1314.008 0 01-4.661 16.67c-3.995 13.899-8.164 26.364-12.745 38.107-4.876 12.504-10.504 24.555-16.726 35.82-6.198 11.237-13.415 22.427-21.376 33.177l-.68.909-.684.909c-6.507 8.674-13.611 17.364-21.604 26.424l-1.587 1.795c-.266.301-.534.601-.804.903-6.105 6.823-12.4 13.663-18.611 20.37l-8.746 9.432c-9.418 10.16-18.348 20.322-26.57 30.233A450.57 450.57 0 00-32.1 323.64l-.792 1.375c-5.51 9.502-10.874 19.106-16.291 28.892l-6.674 12.068-38.897 70.355zm-56.635.929l57.087-103.248 2.123-3.798c5.259-9.372 11.26-19.823 17.718-29.807 8.043-10.704 16.885-20.781 26.281-29.951l1.082-1.051c7.615-7.373 16.176-15.069 27.33-24.563l6.581-5.582c9.056-7.693 18.472-15.821 27.404-24.015 10.837-9.944 20.13-19.591 28.407-29.49.45-.538.884-1.085 1.328-1.627.63-.768 1.265-1.533 1.883-2.307l.23-.294c6.884-8.663 13.005-17.704 18.241-26.963l.823-1.47.256-.473c4.647-8.44 8.767-17.426 12.293-26.821a220.242 220.242 0 003.358-9.619c3.978-12.28 7.21-25.346 9.887-39.946l.2-1.106.709-3.985.295-1.717c.21-1.216.419-2.435.624-3.661l.539-3.269.435-2.694.506-3.198.507-3.27.46-3.016.748-5.007.747-5.097 1.276-8.833c2.239-15.3 4.334-27.127 6.726-38.014 2.828-12.884 6.773-25.83 11.726-38.479l.936-1.937c.39-.807.776-1.618 1.171-2.422l.561-1.126a414.546 414.546 0 011.62-3.257l.567-1.109c.546-1.075 1.091-2.15 1.645-3.223l.855-1.64c.463-.893.926-1.786 1.396-2.677l1.643-3.1 1.132-2.12c2.191-4.09 4.423-8.18 6.678-12.294l56.549-102.274 8.933 14.9-52.326 94.638c-6.131 11.08-12.614 22.9-18.588 34.924-5.106 12.027-9.624 24.774-13.441 37.936-2.893 12.401-5.611 25.716-8.307 40.704l-.894 4.958c-2.111 11.652-4.391 23.85-6.999 35.912-3.07 14.22-6.601 27.031-10.795 39.163-4.4 12.73-9.788 24.9-16.014 36.171-6.178 11.226-13.632 22.279-22.047 32.766-8.002 9.972-16.922 19.734-27.269 29.848-8.816 8.62-17.852 16.961-26.504 24.855l-5.987 5.459c-10.277 9.403-19.305 18.019-27.561 26.304-9.059 10.078-17.423 20.523-24.893 31.094-6.534 10.53-12.529 21.118-19.518 33.751l-53.012 95.881-17.341.286zm27.374-119.923c6.482-11.472 12.942-22.618 20.716-32.874 7.608-10.037 16.685-19.548 27.749-29.073l1.176-1.008c8.472-7.232 17.975-14.721 30.418-23.972l6.51-4.829c10.873-8.086 20.245-15.215 29.358-22.59 11.75-9.511 21.708-18.795 30.444-28.38a182.148 182.148 0 005.4-6.222c.421-.507.856-1.009 1.27-1.519l.753-.95c5.046-6.281 9.582-12.781 13.544-19.444.616-1.033 1.205-2.075 1.795-3.117l.688-1.195c6.257-11.327 11.303-23.841 15-37.197 3.474-12.533 6.045-25.974 7.857-41.092 1.422-11.857 2.502-24.097 3.402-35.3l.787-10c1.298-16.296 2.692-28.831 4.49-40.399 2.26-14.555 5.608-27.404 10.236-39.281C92.532-73.823 99.06-85.88 104.814-96.51l66.107-119.557 8.932 14.902-61.896 111.941-1.986 3.655c-5.896 10.871-11.226 20.952-16.097 31.603a246.652 246.652 0 00-10.708 39.444l-.278 1.529c-1.932 10.75-3.57 22.441-5.228 37.321l-.969 8.859c-1.264 11.467-2.759 24.209-4.645 36.705-2.226 14.745-5.11 27.908-8.817 40.24-3.917 13.029-9.046 25.327-15.247 36.551l-.142.257c-.337.605-.692 1.206-1.037 1.808l-.832 1.462c-.14.243-.281.486-.424.728a186.084 186.084 0 01-12.163 18.023l-1.77 2.306c-.302.386-.618.764-.925 1.148a196.634 196.634 0 01-5.482 6.584c-8.431 9.668-17.987 19.068-29.215 28.737-9.978 8.592-20.564 17.088-30.643 25.057l-2.152 1.7c-13.494 10.647-23.452 18.982-32.29 27.024a250.988 250.988 0 00-27.664 29.626c-7.482 11.16-14.032 22.649-20.103 33.465l-62.488 113.018-17.334.283 66.666-120.573zm-163.379 124.192l12.714-.212-.009.017 21.951-.361.002-.004 39.288-.648.002-.005 17.342-.285-.003.004 21.951-.36.001-.002 19.649-.323.002-.003 17.354-.286-.005.009 21.952-.362.005-.007 17.33-.285-.002.003 21.95-.359 45.642-82.541c4.062-7.325 8.349-15.01 12.666-22.619A532.13 532.13 0 013.87 300.23c7.699-10.078 15.843-20.22 24.893-30.994l2.383-2.779c7.786-9.082 15.837-18.472 23.625-27.809 9.208-11.038 17.221-21.375 24.5-31.602 7.224-10.151 13.879-20.609 19.807-31.125l1.368-2.45c6.261-11.336 12.036-23.399 17.167-35.858 4.78-11.607 9.285-23.948 13.77-37.727 2.734-8.406 5.423-16.957 8.052-25.385l4.097-13.16c4.382-13.569 8.697-25.96 13.182-37.849a534.377 534.377 0 0116.552-35.897l1.653-3.043c4.139-7.61 8.34-15.243 12.794-23.306l43.083-77.921-10.124-16.889.005-.009-11.315-18.875-.002.003-10.121-16.884-.002.003-10.138-16.912-.002.002-10.122-16.884-.001.002-8.935-14.904.009-.015-11.317-18.876-.009.017-8.935-14.911.006-.011-11.326-18.876-.006.012-8.946-14.925.009-.014-6.702-11.178-8.95.144-.018.034-17.327.285.012-.021-21.952.361-.01.018-17.348.285.01-.018-21.953.362-.002.004-17.335.286.002-.003L-4-294.7l-.006.011-19.636.322-73.317 132.596a1755.122 1755.122 0 01-4.493 8.791l-5.06 9.837a1268.343 1268.343 0 00-7.021 13.84l-1.378 2.781c-5.642 11.453-11.174 23.634-16.442 36.2l-1.52 3.664c-3.664 8.889-7.48 18.532-12.051 30.452l-2.474 6.465c-3.74 9.739-8.445 21.742-13.515 33.571-5.482 12.81-11.134 24.44-17.277 35.55-5.858 10.638-12.378 21.11-19.86 32.003l-1.026 1.489c-7.083 10.236-14.469 20.25-20.589 28.416l-6.124 8.15c-6.018 8.03-13.193 17.725-20.128 27.549-7.775 11.01-15.101 22.067-21.775 32.861-3.256 5.267-6.473 10.632-9.621 15.922l-3.124 5.258c-2.454 4.133-4.906 8.263-7.4 12.407l-74.026 133.879 20.254 33.782-.001.001 31.574 52.668.003-.006 8.94 14.913-.003.005 13.701 22.851z" fill="url(#prefix__paint0_linear_31_673)"/><defs><linearGradient id="prefix__paint0_linear_31_673" x1="-25.626" y1="432.49" x2="312.647" y2="113.545" gradientUnits="userSpaceOnUse"><stop stop-color="#5D5DFF" stop-opacity=".01"/><stop offset=".538" stop-color="#5D5DFF" stop-opacity=".32"/><stop offset="1" stop-color="#5D5DFF" stop-opacity=".01"/></linearGradient></defs></svg>
