<svg viewBox="0 0 243 396" fill="none" xmlns="http://www.w3.org/2000/svg"><path fill-rule="evenodd" clip-rule="evenodd" d="M150.268-367.515l17.298 1.719 51.157 112.528 8.037 17.86 3.526 7.859 4.282 9.568c4.422 9.927 9.04 20.518 13.201 31.332a362.503 362.503 0 011.73 4.577 217.028 217.028 0 015.98 19.023 204.638 204.638 0 014.091 19.117c2.051 12.656 3.114 26.209 3.25 41.437.083 9.337-.043 18.912-.207 28.33l-.127 7.028c-.049 2.675-.099 5.35-.145 8.025l-.037 2.565c-.177 15.273.43 28.396 1.853 40.048 1.676 13.743 5.054 26.434 10.041 37.746l.53 1.184c5.279 11.61 12.831 22.918 22.447 33.607 8.426 9.37 18.304 18.755 31.086 29.535l11.17 9.406c7.397 6.237 14.887 12.611 22.046 18.999 11.445 10.21 21.004 20.041 29.224 30.051 8.236 10.055 15.699 21.205 22.182 33.136 5.66 10.491 10.84 21.269 15.626 31.533l1.806 3.888a13452.78 13452.78 0 0114.88 32.335l51.396 113.021-10.114 14.088-53.472-117.622a17136.6 17136.6 0 00-7.081-15.421l-5.565-12.086-3.764-8.161-1.263-2.718c-5.64-12.094-10.695-22.419-16.475-32.65-6.742-11.862-14.727-22.923-23.732-32.876-8.703-9.617-18.949-19.237-31.327-29.411-5.608-4.61-11.386-9.231-17.099-13.769l-10.832-8.595-6.792-5.408a426.023 426.023 0 01-4.684-3.804c-10.685-8.808-19.568-17.067-27.049-25.141-9.42-10.167-16.818-20.943-21.997-32.044l-.504-1.097c-5.137-11.363-8.504-24.236-10.007-38.266-1.336-12.466-1.646-26.438-.952-42.715.152-3.583.318-7.171.488-10.76l.588-12.319c.327-6.978.638-14.054.854-20.997.496-15.883.036-29.81-1.402-42.575-1.494-13.241-4.465-26.413-8.83-39.153-4.352-12.559-9.634-24.809-14.694-36.177a8524.94 8524.94 0 00-11.631-25.938l-4.238-9.414-54.749-120.428zm36.894 3.658l47.064 103.526c3.964 8.797 7.937 17.612 11.902 26.451l3.961 8.847c4.739 10.612 10.251 23.163 15.201 35.8 4.884 12.562 8.722 25.204 11.407 37.577 2.711 12.598 4.565 26.197 5.511 40.42.789 11.875 1.175 24.14 1.496 36.162l.162 6.237c.425 16.48 1.468 29.808 3.282 41.941 2.023 13.535 5.566 26.094 10.538 37.362l.576 1.285c5.279 11.6 12.64 22.985 21.877 33.836 7.959 9.347 17.364 18.94 29.597 30.194l4.443 4.09c8.919 8.217 17.992 16.663 26.6 25.283 10.151 10.167 19.223 20.624 26.96 31.078 7.689 10.425 14.528 21.464 20.902 33.75 6.261 12.106 11.949 24.21 17.165 35.487l4.386 9.522c2.338 5.075 4.673 10.15 7 15.221l4.463 9.729 16.607 36.52 29.778 65.502-10.113 14.087-43.938-96.652-.486-1.066-4.962-10.918c-3.636-7.924-7.273-15.851-10.923-23.778l-5.521-11.961-1.781-3.833c-4.798-10.29-9.992-21.098-15.678-31.638-6.541-12.039-14.076-23.292-22.394-33.451-8.285-10.09-17.915-19.994-29.438-30.274-8.072-7.202-16.551-14.377-24.845-21.359l-8.414-7.082c-12.709-10.719-22.524-20.043-30.889-29.344-9.211-10.248-16.501-21.057-21.674-32.145l-.529-1.152c-5.143-11.375-8.613-24.204-10.309-38.13-1.493-12.238-2.081-26.086-1.802-42.338l.071-4.01.074-4.012c.215-11.659.438-23.714.335-35.413-.139-15.327-1.211-28.979-3.277-41.741a206.104 206.104 0 00-3.868-18.254 217.631 217.631 0 00-6.305-20.269 401.133 401.133 0 00-1.759-4.658c-4.195-10.897-8.807-21.468-13.217-31.36l-.638-1.424a8274.47 8274.47 0 00-7.181-16.028l-8.057-17.906-50.658-111.429 17.298 1.718zm19.606 1.946l42.972 94.522c3.968 8.799 7.945 17.614 11.915 26.453l5.426 12.112c4.131 9.262 9.183 20.759 13.991 32.439a334.179 334.179 0 017.696 20.728l.893 2.7.209.666a284.345 284.345 0 013.821 12.97c3.314 12.383 5.958 25.633 7.853 39.38.44 3.212.848 6.428 1.233 9.686l.285 2.452c.841 7.384 1.576 15.028 2.312 23.373l.594 6.856.104 1.172c1.349 15.228 2.969 27.568 5.068 38.66.407 2.159.859 4.286 1.338 6.393l.364 1.577c.17.723.328 1.455.506 2.173l.304 1.161c2.299 9.04 5.211 17.6 8.723 25.551l.632 1.41c5.269 11.582 12.364 23.07 21.09 34.152a284.404 284.404 0 004.282 5.304l1.183 1.424c5.976 7.148 12.892 14.782 21.268 23.486l.842.874c9.287 9.62 19.151 19.984 28.354 30.575a369.107 369.107 0 013.391 3.971c7.812 9.292 14.945 18.752 21.245 28.18 6.989 10.504 13.442 21.728 19.729 34.313 3.272 6.595 6.496 13.294 9.655 19.921l4.388 9.228 3.034 6.389 58.04 127.674-10.11 14.086-45.327-99.709-5.06-11.01a11853.94 11853.94 0 00-7.005-15.233c-1.461-3.174-2.91-6.343-4.377-9.519l-1.759-3.795c-4.739-10.196-9.862-20.977-15.443-31.773-6.425-12.378-13.316-23.506-21.072-34.017-7.795-10.535-16.931-21.066-27.153-31.303-9.352-9.366-19.239-18.514-28.882-27.388l-2.221-2.043c-12.174-11.198-21.524-20.737-29.427-30.02-9.118-10.708-16.378-21.935-21.58-33.366l-.122-.27c-5.134-11.356-8.78-24.087-10.837-37.845-1.712-11.463-2.734-24.01-3.193-39.32l-.069-2.493-.157-6.016c-.32-12.078-.707-24.4-1.502-36.348-.955-14.332-2.823-28.027-5.552-40.71-2.708-12.478-6.576-25.222-11.497-37.881-4.917-12.562-10.23-24.672-15.239-35.89a9563.587 9563.587 0 00-11.621-25.883l-4.262-9.462-46.57-102.434 17.297 1.717zm2.301.229l17.299 1.718 54.892 120.753 2.249 5.146 5.003 11.424a2438.322 2438.322 0 018.284 19.121c5.546 13.104 10.021 25.084 13.68 36.619 3.829 12.078 7.191 25.01 9.996 38.435l.469 2.277c2.548 12.52 4.636 24.949 6.241 34.967l1.006 6.287c1.711 10.55 3.999 23.56 7.033 36.319.589 2.484 1.23 4.927 1.893 7.35 2.787 10.225 6.181 19.904 10.147 28.858l.718 1.607c5.235 11.515 12.016 23.13 20.155 34.522 7.669 10.737 16.001 21.057 22.848 29.313l4.438 5.33c9.572 11.512 16.866 20.652 23.437 29.354 8.281 10.982 15.861 22.128 22.527 33.126 6.302 10.451 12.423 21.837 18.713 34.811a2691.767 2691.767 0 018.796 18.497l6.348 13.467c.579 1.226 1.157 2.452 1.736 3.675l53.986 118.753-10.11 14.085L463.287 197.5l-3.174-6.676-3.027-6.376c-3.556-7.478-7.198-15.073-10.905-22.537-6.335-12.684-12.83-23.979-19.855-34.533a295.72 295.72 0 00-2.768-4.067c-6.577-9.494-13.968-18.989-22.021-28.283-6.157-7.085-12.6-14.057-18.971-20.777a1317.87 1317.87 0 00-6.334-6.635l-3.997-4.152-1.701-1.775c-8.118-8.505-14.821-15.973-20.605-22.973a283.107 283.107 0 01-4.259-5.28c-8.634-10.967-15.647-22.319-20.842-33.74l-.125-.276c-5.13-11.346-9.033-23.973-11.599-37.534l-.301-1.624c-1.99-10.893-3.54-23.068-4.847-38.06l-.352-4.091c-1.23-14.165-2.424-26.264-4.079-38.325-1.906-13.825-4.564-27.157-7.902-39.625a277.404 277.404 0 00-1.801-6.39l-.816-2.743a301.061 301.061 0 00-1.947-6.119c-2.36-7.188-5.051-14.49-8.136-22.053l-.859-2.078c-5.163-12.448-10.491-24.471-14.616-33.685-5.286-11.807-10.593-23.572-15.9-35.338l-42.479-93.437zm36.897 3.667l50.804 111.756 3.279 7.445 3.29 7.449a4891.17 4891.17 0 019.126 20.732l1.04 2.406c5.477 12.711 9.793 23.522 13.516 33.847 4.316 11.983 8.296 24.643 11.83 37.629l.599 2.214c3.368 12.544 6.338 24.984 8.639 34.864l1.189 5.107c2.386 10.182 5.477 22.814 9.16 35.464 3.723 12.783 7.937 24.413 12.861 35.481l.727 1.618.108.237c5.283 11.62 11.554 23.041 19.169 34.913l1.247 1.936c6.882 10.622 14.114 20.864 20.011 29.066l4.235 5.883c6.057 8.44 13.374 18.789 20.361 29.303 7.514 11.313 14.479 22.745 20.698 33.976l1.005 1.828c5.363 9.798 10.759 20.469 16.884 33.387 2.166 4.589 4.319 9.181 6.467 13.773l3.22 6.889c2.348 5.026 4.694 10.05 7.045 15.054l49.941 109.856-10.107 14.08-53.516-117.722-2.536-5.373-6.914-14.667a2400.525 2400.525 0 00-7.442-15.631c-6.317-13.03-12.466-24.469-18.801-34.974-6.701-11.056-14.319-22.259-22.642-33.296l-1.382-1.823c-7.85-10.305-15.94-20.183-22.502-28.072l-4.116-4.945c-6.83-8.24-15.115-18.508-22.693-29.114-7.783-10.895-14.312-21.994-19.42-33.009l-.718-1.567c-5.101-11.283-9.291-23.75-12.456-37.06-3.03-12.763-5.306-25.709-7.006-36.195l-1.281-7.995c-1.668-10.331-3.823-22.971-6.45-35.607-2.819-13.497-6.201-26.495-10.046-38.632-3.666-11.56-8.16-23.597-13.747-36.797-3.178-7.442-6.456-14.947-9.663-22.27l-1.37-3.127a6484.951 6484.951 0 01-4.516-10.324l-54.419-119.712 17.292 1.719zm19.597 1.944l62.82 138.182a1888.78 1888.78 0 003.682 8.881l1.854 4.438c3.119 7.46 6.345 15.174 9.385 22.828 4.378 11.023 8.6 22.642 12.561 34.573l.789 2.39c3.741 11.405 7.238 22.929 10.091 32.535l2.854 9.655c2.916 9.824 6.569 21.797 10.588 33.665 4.475 13.234 9.226 25.348 14.499 36.926 5.282 11.619 11.276 23.15 18.322 35.251l1.152 1.972c5.776 9.843 11.752 19.445 16.824 27.462l5.79 9.117c7.24 11.429 12.92 20.646 18.133 29.415 6.924 11.688 13.381 23.356 19.191 34.68 2.82 5.502 5.6 11.105 8.32 16.629l5.965 12.138c1.091 2.212 2.182 4.418 3.277 6.612l62.209 136.846-10.108 14.081-49.459-108.798-3.463-7.389-3.456-7.394c-2.176-4.656-4.351-9.314-6.537-13.97l-3.288-6.983-1.144-2.404c-6.06-12.689-11.429-23.203-16.803-32.921-6.219-11.239-13.212-22.716-20.783-34.115l-1.255-1.883c-6.706-10.02-13.542-19.677-19.231-27.6l-5.783-8.039c-5.923-8.274-12.953-18.32-19.568-28.639-7.146-11.14-13.333-22.335-18.403-33.293l-.842-1.838c-4.946-10.94-9.18-22.417-12.918-35.018l-.464-1.581c-2.911-9.995-5.71-20.803-8.958-34.616l-2.251-9.635c-2.325-9.884-5.201-21.722-8.369-33.362-3.562-13.079-7.557-25.79-11.878-37.783l-.707-1.947c-3.808-10.418-8.251-21.421-13.897-34.428a3775.313 3775.313 0 00-6.081-13.837l-3.049-6.904a7450.614 7450.614 0 01-6.573-14.901l-50.33-110.715 17.292 1.717zm209.455 744.03L417.552 261.55l-3.898-8.478c-2.786-6.063-5.573-12.128-8.368-18.192l-4.2-9.098-1.085-2.335c-4.764-10.229-10.34-21.807-16.897-32.939-6.881-11.576-15.273-22.459-24.941-32.348-9.052-9.26-19.733-18.678-32.656-28.793a1859.638 1859.638 0 00-12.275-9.508l-10.087-7.747c-4.368-3.36-8.783-6.771-13.101-10.16-12.833-10.071-23.294-19.503-31.982-28.833-9.715-10.434-17.272-21.51-22.462-32.921l-.103-.23c-5.132-11.35-8.478-24.22-9.941-38.253-1.323-12.677-1.553-26.682-.706-42.815.354-6.813.784-13.753 1.215-20.542l.645-10.164c.285-4.555.566-9.157.815-13.693.898-16.261.874-30.379-.074-43.16-1.018-13.737-3.585-27.096-7.632-39.711-4.119-12.721-9.368-24.973-14.425-36.32a9586.928 9586.928 0 00-10.703-23.854l-5.176-11.495-58.838-129.427 17.283 1.717 55.228 121.48.358.794c5.168 11.48 10.352 22.992 15.506 34.549l1.597 3.6c4.539 10.281 9.157 21.218 13.033 32.414a183.175 183.175 0 018.733 38.725c1.431 12.65 1.886 26.483 1.392 42.288-.218 6.982-.531 14.101-.86 21.123l-.333 6.98c-.254 5.32-.51 10.64-.736 15.951l-.105 2.636c-.558 15.259-.208 28.491 1.065 40.379 1.481 13.854 4.759 26.606 9.75 37.925l.514 1.15c5.286 11.614 12.945 22.878 22.766 33.477 7.542 8.14 16.49 16.46 27.244 25.324a429.289 429.289 0 004.721 3.834l6.81 5.423 10.839 8.601c5.694 4.524 11.454 9.129 17.04 13.72 12.3 10.111 22.478 19.665 31.113 29.208 8.918 9.861 16.816 20.803 23.474 32.521 5.944 10.51 11.143 21.19 17.031 33.857l2.384 5.152 4.019 8.717 4.34 9.439c2.151 4.685 4.269 9.305 6.327 13.8l53.904 118.576-10.096 14.065zm-5.202 7.302l-10.674-1.06-57.099-125.602-2.283-4.977c-3.135-6.837-6.273-13.679-9.422-20.522l-4.732-10.265c-5.005-10.822-10.953-23.359-18.209-35.195-6.908-11.205-15.612-21.949-25.868-31.936-9.208-8.967-20.127-18.274-33.377-28.45a3119.263 3119.263 0 00-7.466-5.708l-9.821-7.484c-6.113-4.666-12.294-9.418-18.291-14.159-12.638-9.993-23.009-19.464-31.707-28.953-9.329-10.186-16.682-20.975-21.865-32.08l-.534-1.164c-5.135-11.358-8.538-24.2-10.116-38.171-1.439-12.732-1.76-26.696-.985-42.69.505-10.407 1.225-21.07 1.922-31.385.295-4.355.587-8.708.867-13.053 1.061-16.54 1.271-30.758.641-43.468-.708-14.198-2.96-27.701-6.694-40.139-3.866-12.711-9.113-25.027-14.206-36.441a9667.847 9667.847 0 00-11.143-24.813l-4.745-10.53-57.67-126.853 7.403-10.316 4.621.458 59.317 130.477.43.958c5.144 11.425 10.303 22.883 15.441 34.382 5.048 11.328 10.28 23.545 14.35 36.119 3.997 12.462 6.535 25.667 7.539 39.246.941 12.687.966 26.72.075 42.9-.25 4.527-.529 9.12-.814 13.667l-.86 13.57c-.357 5.702-.707 11.478-1.003 17.17-.853 16.272-.619 30.378.714 43.126 1.452 13.88 4.717 26.649 9.712 37.981l.502 1.122c5.285 11.615 12.962 22.871 22.819 33.455 8.753 9.402 19.29 18.904 32.21 29.046a1929.44 1929.44 0 0015.699 12.155l7.475 5.741c4.096 3.149 8.237 6.346 12.292 9.52 12.856 10.064 23.473 19.425 32.458 28.615 9.571 9.793 17.865 20.55 24.648 31.97 6.347 10.773 11.742 21.821 17.891 35.096 5.497 11.887 10.952 23.778 16.398 35.648l58.018 127.622-3.858 5.37zm-30.292-3.024l-53.01-116.603a13178.293 13178.293 0 00-16.419-35.771l-1.225-2.648c-4.939-10.636-10.365-21.788-17.129-32.493-6.963-10.955-15.853-21.615-26.422-31.683-9.307-8.865-19.964-17.877-33.54-28.363l-11.628-8.972c-7.883-6.091-15.873-12.315-23.543-18.553-12.316-10.015-22.473-19.581-31.053-29.245-9.354-10.532-16.744-21.692-21.968-33.17l-.114-.252c-5.157-11.406-8.672-24.195-10.451-38.018-1.639-12.758-2.174-26.623-1.632-42.388.393-11.401 1.084-23.095 1.787-34.506l.601-9.732.147-2.476c.872-15.134 1.099-27.747.707-39.363l-.06-1.693c-.561-14.483-2.628-28.069-6.144-40.382-3.434-11.967-8.097-23.26-14.04-36.535a13615.866 13615.866 0 00-15.905-35.334l-53.616-117.938 10.112-14.089 57.193 125.804 8.162 18.126a8947.668 8947.668 0 017.721 17.208l1.324 2.98c4.641 10.5 9.294 21.706 12.794 33.225 3.691 12.281 5.915 25.625 6.61 39.66l.097 2.12c.507 12.096.265 25.576-.735 41.12-.185 2.873-.376 5.75-.57 8.628l-.291 4.32c-.7 10.355-1.424 21.063-1.93 31.52-.777 16.11-.452 30.178.994 43.01 1.553 13.788 4.871 26.507 9.863 37.832l.529 1.182c5.288 11.623 12.903 22.903 22.636 33.529 8.754 9.556 19.202 19.098 31.941 29.171 5.998 4.743 12.177 9.493 18.285 14.156l6.077 4.631c3.752 2.86 7.504 5.716 11.237 8.583l2.176 1.678c12.207 9.466 22.375 18.19 31.026 26.617 10.14 9.874 18.74 20.49 25.559 31.553 6.706 10.935 12.295 22.501 17.053 32.735l1.044 2.251a9165.973 9165.973 0 019.147 19.872l7.282 15.872 56.617 124.542-17.296-1.718zm-19.595-1.925l-65.216-143.457-1.691-3.581c-4.772-10.073-10.172-21.115-16.839-31.475-6.948-10.796-15.88-21.434-26.55-31.619l-1.288-1.222c-8.652-8.166-18.567-16.651-30.996-26.529l-7.51-5.958c-9.335-7.415-18.811-15.013-27.815-22.655-11.895-10.099-21.761-19.796-30.164-29.648-9.055-10.616-16.306-21.847-21.554-33.379l-.124-.274c-5.177-11.45-8.833-24.174-10.87-37.823C177.409 9.936 176.584-3.8 176.79-19.3c.165-12.212.692-24.566 1.266-36.662l.348-7.223c.826-17.075.979-30.856.479-43.37-.583-14.589-2.603-28.194-6.007-40.435-3.665-13.186-9.134-25.792-13.973-36.574-5.299-11.809-10.616-23.577-15.923-35.326L93.414-327.917l10.107-14.082 53.141 116.89a14320.338 14320.338 0 0115.901 35.326l1.127 2.53c5.372 12.116 9.632 22.648 12.815 33.737 3.471 12.178 5.514 25.606 6.069 39.911l.032.902.031.906c.4 12.165.127 25.416-.856 41.507l-.366 5.946a4902.06 4902.06 0 00-.717 11.818c-.334 5.642-.654 11.316-.917 16.966-.065 1.398-.112 2.782-.17 4.176l-.152 3.599-.068 1.8c-.548 15.869-.009 29.84 1.648 42.715 1.753 13.623 5.171 26.26 10.167 37.591l.561 1.254c5.305 11.657 12.805 22.985 22.291 33.668 8.657 9.748 18.891 19.387 31.289 29.47 7.678 6.244 15.671 12.471 23.557 18.564l11.653 8.992c13.491 10.415 24.098 19.384 33.382 28.227 10.451 9.955 19.237 20.489 26.113 31.306 7.253 11.478 12.982 23.538 18.227 34.908a12719.602 12719.602 0 0116.416 35.766l52.529 115.546-17.295-1.71zm-19.605-1.964l-61.118-134.443-1.683-3.587c-4.748-10.091-10.122-21.152-16.768-31.512-6.896-10.752-15.744-21.425-26.297-31.722l-1.188-1.153c-8.176-7.903-17.65-16.294-29.57-26.192l-1.762-1.46c-3.97-3.279-7.9-6.535-11.784-9.781l-2.065-1.73c-1.72-1.444-3.428-2.887-5.128-4.33a886.234 886.234 0 01-7.597-6.524 701.237 701.237 0 01-3.697-3.238l-3.081-2.729c-11.447-10.238-20.982-20.085-29.151-30.107-8.739-10.72-15.84-22.027-21.109-33.602-5.263-11.587-9.125-24.338-11.457-37.912-2.181-12.7-3.335-26.286-3.528-41.536a624.594 624.594 0 01-.044-6.282c-.024-10.348.19-20.87.457-31.054l.231-8.532c.289-11.394.327-21.242.107-30.166l-.024-.953c-.088-3.27-.21-6.417-.367-9.471-.751-14.595-2.856-28.159-6.254-40.312-3.493-12.488-8.38-23.956-13.942-36.591L81.956-311.955l10.108-14.08 49.094 107.99c5.3 11.733 10.616 23.498 15.915 35.307l1.003 2.242c4.546 10.202 9.489 21.895 12.868 34.049 3.359 12.082 5.356 25.533 5.935 39.979l.065 1.74c.416 11.952.242 25.187-.544 41.452l-.349 7.257c-.576 12.149-1.105 24.543-1.264 36.7-.209 15.613.623 29.454 2.541 42.312 2 13.415 5.549 25.95 10.552 37.291l.6 1.34c5.323 11.7 12.675 23.088 21.852 33.848 8.471 9.934 18.413 19.705 30.392 29.874 9.961 8.457 20.485 16.846 30.763 24.998l3.678 2.915 2.771 2.206c12.13 9.702 21.819 18.07 30.31 26.169 10.546 10.062 19.378 20.577 26.249 31.254 7.396 11.492 13.246 23.892 18.4 34.819l64.718 142.363-17.289-1.722zm-19.589-1.927l-57.037-125.462-2.247-4.812c-4.587-9.777-9.76-20.389-16.014-30.36-6.847-10.914-15.251-21.376-25.696-31.985l-1.109-1.121c-8.179-8.236-17.392-16.773-29.575-27.402l-4.334-3.779c-9.082-7.93-19.173-16.854-28.643-25.825-10.98-10.401-20.17-20.407-28.096-30.59-8.419-10.812-15.373-22.192-20.666-33.825l-.132-.292-.634-1.46c-.395-.896-.79-1.79-1.171-2.7-3.535-8.493-6.421-17.514-8.607-26.912-.111-.474-.231-.942-.338-1.42l-.069-.33c-.339-1.529-.664-3.066-.966-4.616-2.466-12.63-3.967-26.06-4.587-41.065l-.098-2.508c-.451-12.132-.542-24.452-.522-38.862l.004-3.69c-.003-16.267-.38-28.803-1.212-40.401-1.058-14.716-3.301-27.81-6.861-40.03-3.642-12.499-8.76-24.392-14.128-36.494L70.501-295.987l10.111-14.086 61.067 134.327 1.816 4.145c4.773 10.955 8.952 21.18 12.026 32.169 3.358 12.014 5.439 25.431 6.182 39.877.211 4.102.359 8.37.444 12.88l.026 1.513c.126 8.136.051 17.077-.221 27.257l-.178 6.522c-.285 10.665-.518 21.747-.476 32.743a617.4 617.4 0 00.044 5.464c.192 15.352 1.355 29.04 3.556 41.848 2.269 13.203 5.96 25.64 10.978 36.997l.63 1.406c5.339 11.732 12.531 23.183 21.378 34.037 8.235 10.103 17.842 20.025 29.37 30.334l1.245 1.095a700.667 700.667 0 008.695 7.598 843.237 843.237 0 004.502 3.848l2.508 2.124 3.632 3.055 1.112.93c2.902 2.425 5.819 4.853 8.763 7.292l4.708 3.896c12.451 10.339 22.225 19.029 30.64 27.241 10.446 10.191 19.197 20.744 26.013 31.37 7.389 11.517 13.196 23.927 18.316 34.866l60.634 133.377-17.287-1.717zm-39.2-3.906L292.69 275.072l-1.687-3.659a1529.127 1529.127 0 00-3.314-7.13l-1.323-2.819-.778-1.643-1.326-2.779c-2.856-5.956-5.739-11.75-8.81-17.54l-.037-.064c-7.24-11.595-15.348-22.578-24.099-32.646l-1.517-1.733c-6.972-7.924-14.853-16.233-25.079-26.439l-6.813-6.772c-1.107-1.103-2.196-2.19-3.27-3.265l-2.68-2.689-1.801-1.816-2.569-2.599-1.281-1.305-2.332-2.386-1.386-1.426-2.337-2.416-1.263-1.318-2.485-2.604c-.667-.704-1.328-1.411-1.99-2.116-.515-.548-1.034-1.096-1.546-1.645-10.043-10.77-18.547-21.093-26-31.557a218.562 218.562 0 01-5.664-8.351c-5.38-8.344-10.088-16.926-14.06-25.612l-.137-.292c-4.757-10.562-8.744-21.83-11.789-33.56l-.375-1.468c-.196-.781-.402-1.558-.591-2.342-2.992-12.468-5.179-25.594-6.683-40.13-1.344-12.95-2.293-26.316-3.104-38.97l-.312-4.877c-1.031-15.792-2.18-27.965-3.696-39.228-1.768-13.108-4.605-26.317-8.451-39.325-4.202-11.252-9.029-22.34-13.428-32.179l-1.787-3.98-49.307-108.456 10.112-14.088 52.968 116.511 1.6 3.588c4.548 10.238 9.208 21.078 13.187 32.277a249.773 249.773 0 017.2 39.48l.22 2.28c1.006 10.714 1.676 22.452 2.139 37.451l.064 2.165c.397 13.633.902 28.201 1.922 42.367 1.068 14.846 2.927 28.215 5.684 40.872 2.882 13.236 7.025 25.876 12.315 37.576l.174.382c5.37 11.8 12.254 23.375 20.463 34.405 7.744 10.407 16.65 20.642 27.225 31.29 9.121 9.18 18.539 18.071 29.768 28.478l1.129 1.046c12.679 11.743 21.987 20.904 30.184 29.701a244.786 244.786 0 0125.046 31.828c6.229 11.337 11.78 23.172 17.387 35.303l52.453 115.384-17.288-1.717zm-21.919-2.17l-17.288-1.718-40.665-89.447c-4.959-10.914-9.85-21.614-15.001-32.234l-1.749-3.581c-6.362-11.477-13.497-22.882-21.233-33.934-7.489-9.745-15.622-19.703-24.824-30.397l-5.575-6.46c-7.396-8.578-14.924-17.373-22.202-26.267-9.166-11.203-17.013-21.831-23.989-32.491-7.055-10.787-13.26-21.93-18.454-33.147l-.91-1.987c-5.234-11.575-9.702-23.875-13.282-36.569-3.458-12.247-6.304-25.083-8.703-39.243l-.446-2.657c-1.84-11.056-3.432-22.003-5.229-34.669l-.435-3.074c-2.064-14.582-4.257-27.696-6.717-40.133-3.154-12.966-6.95-25.722-11.302-37.961-4.672-11.342-9.75-22.675-14.616-33.4l-42.334-93.12 10.106-14.081 46.09 101.385c5.43 11.994 9.979 22.35 14.17 32.955 3.998 12.21 7.374 25.076 10.024 38.193l.379 2.573c1.63 11.212 3.085 23.243 4.434 36.642l.906 9.028c1.24 12.156 2.437 22.884 3.899 33.65 1.965 14.45 4.496 27.51 7.74 39.927a240.729 240.729 0 005.856 19.135c.361 1.022.736 2.034 1.109 3.05l.548 1.5c.4 1.063.815 2.116 1.23 3.168l.56 1.44.421 1.024.425 1.024c.368.891.734 1.784 1.111 2.668l.207.469a211.03 211.03 0 001.581 3.603l.218.48c5.395 11.842 12.006 23.526 19.651 34.726 7.266 10.652 15.492 21.189 25.144 32.212 8.69 9.925 17.921 19.86 26.117 28.602l2.026 2.16c10.399 11.077 19.443 21.175 27.616 30.828 8.216 10.818 15.704 21.97 22.255 33.149 5.711 11.232 10.969 22.63 15.88 33.437l45.251 99.542zm-39.19-3.9l-17.293-1.717-37.353-82.156a3629.507 3629.507 0 00-11.574-25.202 535.64 535.64 0 00-19.042-34.88c-6.904-10.747-14.293-21.627-22.596-33.273l-8.124-11.141c-5.194-7.133-10.45-14.386-15.561-21.586-8.356-11.777-15.548-22.711-21.988-33.426-6.901-11.484-13.103-23.248-18.435-34.964a351.223 351.223 0 01-14.239-36.81c-3.853-11.892-7.357-24.442-10.713-38.367-2.53-10.493-4.972-21.186-7.34-31.621l-1.697-7.48c-3.261-13.73-6.551-26.345-10.068-38.6a534.102 534.102 0 00-13.48-36.924l-1.42-3.21c-4.983-11.232-10.048-22.373-14.565-32.3l-33.19-73.003 10.113-14.088 36.795 80.934c3.816 8.391 7.556 16.653 11.19 24.898l1.38 3.148 1.367 3.147c.614 1.415 1.237 2.832 1.844 4.25a448.493 448.493 0 0112.36 37.18c3.036 12.444 5.858 25.638 8.387 39.214l2.374 12.751C89.232.18 90.962 9.288 92.796 18.237l.29 1.388.292 1.38c2.448 11.651 5.122 22.404 8.125 32.67l.453 1.537c.2.67.395 1.345.596 2.011 3.717 12.277 8.138 24.233 13.243 35.58l.735 1.621c5.367 11.793 11.727 23.577 18.901 35.024 6.727 10.733 14.281 21.563 23.092 33.11 1.751 2.293 3.52 4.59 5.3 6.886.951 1.226 1.909 2.449 2.865 3.672.797 1.021 1.591 2.045 2.39 3.064 2.201 2.808 4.405 5.605 6.597 8.38l7.986 10.099c8.632 10.93 16.773 21.838 24.173 32.393a445.909 445.909 0 0119.959 34.21c4.958 10.403 9.699 20.751 14.819 32.009l37.814 83.174zM13.206-216.174l10.109-14.081 40.811 89.77c5.124 11.272 10.555 23.308 15.611 35.576 4.309 12.124 8.087 24.814 11.216 37.676 2.44 12.353 4.628 25.431 6.69 39.983l.944 6.66c1.532 10.75 3.238 22.398 5.174 33.794 2.413 14.235 5.275 27.14 8.747 39.452 3.608 12.786 8.108 25.175 13.38 36.834l.246.544c5.37 11.801 11.856 23.536 19.273 34.877 7.013 10.722 14.9 21.407 24.115 32.662 8.831 10.784 18.3 21.751 26.653 31.426l2.136 2.482c8.815 10.284 16.611 19.847 23.747 29.132 7.672 10.963 14.77 22.307 21.075 33.677 5.777 11.757 11.196 23.602 16.698 35.713l40.188 88.398-17.283-1.718-40.222-88.461c-4.326-9.484-8.244-17.994-12.356-26.646l-.579-1.214a446.136 446.136 0 00-20.087-34.429c-7.443-10.618-15.607-21.558-24.263-32.517L177 183.01c-2.09-2.646-4.19-5.311-6.288-7.987-3.565-4.547-7.12-9.122-10.6-13.683-8.774-11.497-16.293-22.278-22.987-32.958-7.129-11.372-13.445-23.076-18.776-34.79-5.323-11.676-10.001-24.143-13.881-36.945l-.325-1.087-.321-1.091c-3.081-10.397-5.82-21.283-8.325-33.102l-.495-2.344a284.16 284.16 0 01-.245-1.184c-1.835-8.97-3.57-18.102-5.25-27.088l-2.355-12.646c-2.538-13.618-5.368-26.847-8.42-39.358a450.573 450.573 0 00-12.44-37.42l-.631-1.455c-4.34-10.09-8.85-20.124-13.475-30.309l-5.706-12.554-33.273-73.183zm33.034-46.014l48.827 107.401 1.782 3.97c4.386 9.81 9.196 20.86 13.358 31.998 3.795 12.841 6.61 25.948 8.366 38.959l.199 1.495c1.376 10.51 2.447 21.972 3.416 36.587l.555 8.612c.774 11.857 1.683 24.263 2.933 36.32 1.518 14.629 3.718 27.842 6.728 40.389.163.682.343 1.357.513 2.036.242.963.477 1.93.73 2.887l.099.36c2.847 10.693 6.453 20.999 10.763 30.724l.689 1.537.226.487c4.004 8.764 8.759 17.43 14.198 25.864a220.004 220.004 0 005.717 8.432c7.485 10.517 16.045 20.905 26.167 31.761l.77.82 2.775 2.946 1.202 1.26c.851.894 1.705 1.789 2.567 2.686l2.302 2.381 1.903 1.956 2.265 2.314 2.323 2.357 2.146 2.169 3.573 3.586 3.646 3.639 6.329 6.293c10.944 10.921 19.189 19.658 26.501 28.07 8.655 9.955 16.693 20.842 23.892 32.362l.997 1.907c.416.794.836 1.588 1.246 2.384l.569 1.122c.553 1.08 1.105 2.159 1.648 3.242l.552 1.117c.538 1.08 1.075 2.159 1.606 3.244l.806 1.663c.441.905.882 1.809 1.316 2.717l1.509 3.169 1.027 2.172c1.975 4.198 3.927 8.429 5.885 12.693l48.366 106.388-17.287-1.716-44.756-98.444c-5.237-11.53-10.859-23.784-16.947-35.749-6.608-11.272-14.145-22.501-22.433-33.415-8.229-9.719-17.296-19.841-27.719-30.944l-3.446-3.675c-8.094-8.643-16.525-17.749-24.651-27.036-9.583-10.946-17.76-21.421-24.997-32.023-7.593-11.124-14.149-22.707-19.482-34.427-5.327-11.654-9.754-24.23-13.152-37.239-3.231-12.37-5.747-25.352-7.695-39.69-1.661-12.217-2.967-24.445-4.143-36.098l-.81-8.06c-1.419-13.858-2.95-26.243-4.676-37.812-2.687-13.282-6.083-26.225-10.112-38.525-4.555-11.525-9.479-22.652-15.45-35.797l-45.345-99.736 10.114-14.09zm79.932 93.496c5.342 12.045 10.437 23.878 14.032 36.235 3.519 12.094 5.739 25.052 6.787 39.613l.107 1.545c.752 11.114 1.096 23.208 1.099 38.713l-.006 8.107c.006 13.549.139 25.324.623 37.036.627 15.105 2.139 28.635 4.623 41.364a181.368 181.368 0 001.774 8.045c.155.64.299 1.29.461 1.926l.314 1.17c2.032 7.797 4.544 15.315 7.529 22.469.462 1.11.947 2.205 1.431 3.3l.55 1.264c5.359 11.779 12.394 23.293 20.91 34.226 7.988 10.263 17.243 20.343 28.298 30.814 8.669 8.213 17.85 16.38 26.305 23.784l7.558 6.597c12.306 10.76 21.536 19.356 29.748 27.698 10.336 10.495 18.653 20.846 25.426 31.644 7.252 11.561 13.037 23.991 18.137 34.951l56.538 124.368-17.288-1.718-52.937-116.446-1.749-3.774c-5.209-11.216-10.123-21.507-15.766-31.769a246.74 246.74 0 00-25.274-32.12l-1.062-1.135c-7.476-7.962-15.883-16.251-26.839-26.455l-6.532-6.061c-8.451-7.854-17.787-16.654-26.693-25.621-10.507-10.581-19.353-20.747-27.04-31.077-8.122-10.915-14.935-22.366-20.246-34.038l-.121-.268c-.284-.63-.556-1.274-.833-1.91l-.677-1.54a66.713 66.713 0 01-.331-.774 186.13 186.13 0 01-7.213-20.513l-.796-2.795c-.129-.473-.244-.952-.369-1.428a196.225 196.225 0 01-2.015-8.327c-2.733-12.533-4.578-25.81-5.642-40.589-.946-13.134-1.452-26.698-1.837-39.541l-.081-2.74c-.499-17.182-1.249-30.146-2.433-42.038a251.088 251.088 0 00-7.281-39.873c-4.496-12.662-9.812-24.772-14.873-36.096L59.041-280.032l10.111-14.083 57.02 125.423zm-2.244-205.21l-7.413 10.332-.008-.018-12.802 17.835.002.004-22.911 31.922.002.005-10.114 14.09-.002-.005-12.802 17.834v.002l-11.46 15.964.002.004-10.12 14.1-.005-.009-12.802 17.836.003.008-10.108 14.081-.001-.004L.586-202.087l39.033 85.863A2670.338 2670.338 0 0150.22-92.567a532.203 532.203 0 0113.409 36.73c3.497 12.19 6.781 24.776 10.032 38.465l.809 3.571C77.116-2.135 79.852 9.93 82.7 21.748c3.369 13.974 6.887 26.572 10.754 38.514 3.84 11.852 8.264 23.431 13.17 34.461l1.151 2.56c5.365 11.786 11.603 23.617 18.543 35.165 6.466 10.76 13.685 21.736 22.071 33.554 5.117 7.208 10.376 14.467 15.573 21.604l8.12 11.137c8.278 11.61 15.65 22.463 22.518 33.154a534.244 534.244 0 0118.941 34.696l1.457 3.142a4005.89 4005.89 0 0111.077 24.17l36.85 81.055 19.595 1.946.004.009 21.899 2.175-.001-.003 19.589 1.946-.002-.004 19.622 1.949-.001-.002 19.589 1.945-.001-.002 17.292 1.717.007.016 21.901 2.175-.008-.019 17.297 1.722.006.012 21.906 2.167-.006-.012 17.315 1.72.007.016 12.969 1.287 5.222-7.27-.016-.034 10.104-14.079.01.022 12.803-17.835-.008-.019 10.118-14.095.008.019 12.803-17.837-.002-.004 10.109-14.085.001.004 12.802-17.836-.005-.012 11.453-15.953-62.705-137.933a1772.06 1772.06 0 01-4.376-8.849l-4.878-9.929a1272.06 1272.06 0 00-6.922-13.89l-1.41-2.764c-5.829-11.36-12.306-23.065-19.251-34.789l-2.034-3.405c-4.95-8.242-10.414-17.056-17.256-27.834l-3.714-5.842c-5.586-8.81-12.414-19.746-18.886-30.87-7.013-12.041-12.976-23.514-18.23-35.071-5.046-11.047-9.563-22.526-13.844-35.029l-.582-1.71c-3.993-11.79-7.625-23.692-10.53-33.476l-2.89-9.776c-2.856-9.619-6.358-21.16-10.107-32.586-4.201-12.808-8.706-25.283-13.391-37.077-2.285-5.755-4.673-11.537-7.041-17.219l-2.358-5.643a2446.412 2446.412 0 01-5.545-13.34l-63.312-139.266-39.195-3.891v-.002l-61.107-6.068.003.006-17.302-1.719-.002-.005-26.514-2.631z" fill="url(#prefix__paint0_linear_31_633)"/><defs><linearGradient id="prefix__paint0_linear_31_633" x1="-24.94" y1="-158.396" x2="29.317" y2="303.351" gradientUnits="userSpaceOnUse"><stop stop-color="#5D5DFF" stop-opacity=".01"/><stop offset=".538" stop-color="#5D5DFF" stop-opacity=".32"/><stop offset="1" stop-color="#5D5DFF" stop-opacity=".01"/></linearGradient></defs></svg>
