<svg width="1354" height="94" fill="none" xmlns="http://www.w3.org/2000/svg"><path fill-rule="evenodd" clip-rule="evenodd" d="M24.673-335.506l13.612-24.318 198.311 12.516 31.422 2.109 13.82.944 16.818 1.165c17.436 1.238 35.975 2.709 54.549 5.032 2.61.324 5.224.669 7.841 1.03a346.395 346.395 0 0131.814 6.075A334.48 334.48 0 01423.603-322c19.931 6.902 40.549 15.975 63.035 27.741 13.789 7.214 27.792 14.926 41.541 22.57l10.257 5.712c3.904 2.175 7.807 4.352 11.711 6.521l3.75 2.071c22.352 12.266 42.045 21.678 60.097 28.724 21.291 8.311 42.122 13.272 61.959 14.762l2.081.144c20.462 1.29 41.933-1.031 63.82-6.9 19.182-5.141 39.317-12.424 63.366-22.921l20.994-9.184c13.915-6.075 28.091-12.18 42.076-17.785 22.352-8.96 42.939-15.419 62.932-19.751 20.067-4.32 41.252-6.632 62.956-6.877 19.062-.154 38.232.629 56.402 1.593l6.87.375c19.06 1.078 38.09 2.203 57.1 3.33l199.19 12.549 14.24 26.081-207.28-13.085c-9.07-.542-18.15-1.079-27.23-1.611l-21.34-1.241-14.42-.827-4.8-.261c-21.41-1.136-39.84-1.748-58.589-1.21-21.769.682-43.157 3.839-63.569 9.381-19.723 5.357-40.44 13.002-63.338 23.374-10.376 4.7-20.875 9.643-31.211 14.554l-19.584 9.32-12.309 5.829a606.641 606.641 0 01-8.597 3.962c-19.803 8.934-37.645 15.626-54.316 20.382-20.992 5.99-41.584 8.499-61.232 7.46l-1.937-.114c-20.007-1.306-41.101-6.427-62.701-15.221-19.193-7.815-39.945-18.334-63.444-32.157a3839.547 3839.547 0 01-15.514-9.178l-17.744-10.554c-10.055-5.97-20.265-11.991-30.339-17.769-23.047-13.217-43.827-23.48-63.526-31.377-20.434-8.189-41.715-14.132-63.252-17.666-21.262-3.411-42.667-5.199-62.631-6.625a13720.27 13720.27 0 00-45.608-3.123l-16.565-1.11-212.231-13.394zm29.022-51.875l182.445 11.516c15.481 1.03 30.994 2.062 46.537 3.125l15.552 1.075c18.646 1.307 40.642 2.99 62.403 5.576 21.607 2.624 42.664 6.863 62.584 12.603 20.269 5.877 41.46 13.812 62.989 23.587 17.974 8.16 36.262 17.226 54.152 26.198l9.279 4.661c24.515 12.32 44.787 21.246 63.797 28.089 21.206 7.635 41.952 12.247 61.712 13.723l2.26.156c20.447 1.283 41.91-.694 63.792-5.875 18.849-4.465 38.988-10.882 63.381-20.192l8.863-3.38c17.802-6.777 36.041-13.603 54.237-19.604 21.46-7.074 42.656-12.318 62.992-15.584 20.262-3.219 40.883-4.691 63.04-4.496 21.82.224 43.27 1.295 63.2 2.417l16.82.974c8.96.519 17.92 1.042 26.87 1.574l17.18 1.022 64.36 4.055 115.43 7.288 14.24 26.077-170.33-10.753-1.88-.116-19.24-1.217c-13.98-.832-27.97-1.664-41.97-2.476l-21.14-1.208-6.78-.369c-18.21-.967-37.43-1.752-56.58-1.598-21.902.247-43.284 2.584-63.557 6.944-20.152 4.366-40.891 10.873-63.398 19.894-15.766 6.318-31.755 13.263-47.339 20.084l-15.81 6.921c-23.912 10.435-43.916 17.673-62.96 22.776-20.977 5.617-41.548 7.939-61.174 6.903l-2.033-.121c-20.029-1.307-41.123-6.24-62.695-14.666-18.958-7.402-39.706-17.412-63.433-30.598l-5.854-3.257-5.853-3.263c-17.012-9.481-34.603-19.286-51.877-28.325-22.635-11.839-43.405-20.978-63.5-27.941-9.573-3.297-19.373-6.159-29.331-8.605a347.036 347.036 0 00-33.855-6.572c-2.66-.368-5.32-.719-7.979-1.05-18.719-2.338-37.223-3.802-54.6-5.032l-2.504-.172c-9.402-.658-18.798-1.303-28.179-1.939l-31.502-2.116-196.375-12.393 13.613-24.32zm15.427-27.564L235.7-404.433c15.486 1.025 31.002 2.052 46.547 3.107l21.294 1.466c16.272 1.149 36.421 2.687 56.684 4.731 12.298 1.28 24.035 2.897 35.422 4.868l4.544.798 1.114.213a456.005 456.005 0 0121.526 4.522c20.34 4.813 41.524 11.303 62.96 19.295 5.007 1.87 10 3.792 15.039 5.78l3.789 1.505c11.4 4.555 23.116 9.472 35.863 14.938l10.465 4.505 1.791.767c23.264 9.965 42.455 17.259 60.115 22.86a289.026 289.026 0 0010.263 3.04l2.552.699c1.173.316 2.351.656 3.52.956l1.904.461c14.772 3.694 29.228 6.098 43.175 7.136l2.48.171c20.412 1.282 41.859-.219 63.751-4.46a422.065 422.065 0 0010.546-2.185l2.852-.637c14.346-3.25 30.006-7.514 48.178-13.103l1.825-.563c20.103-6.222 41.669-12.715 63.146-18.05a549.301 549.301 0 018.013-1.91c18.675-4.292 37.162-7.442 55.067-9.381 19.929-2.117 40.575-2.873 63.118-2.313 11.797.327 23.717.808 35.487 1.327l16.39.741 11.34.52 225 14.204 14.24 26.073-175.71-11.095-19.44-1.143c-8.96-.532-17.93-1.056-26.9-1.576-5.6-.325-11.19-.667-16.81-.985l-6.71-.372c-18.03-.981-37.17-1.851-56.63-2.052-22.325-.195-43.111 1.287-63.541 4.537-20.492 3.289-41.839 8.57-63.447 15.693-19.771 6.519-39.563 14.001-58.796 21.338l-4.428 1.689c-24.274 9.267-44.298 15.644-63.018 20.077-21.594 5.117-42.761 7.067-62.909 5.803l-.475-.031c-19.995-1.305-41.058-5.9-62.615-13.66-17.958-6.467-37.07-14.811-59.883-26.161l-3.714-1.856-8.949-4.496c-17.971-9.015-36.346-18.125-54.43-26.335-21.693-9.846-43.037-17.836-63.442-23.754-20.089-5.787-41.315-10.063-63.089-12.708-21.629-2.575-42.849-4.208-62.56-5.59a15078.92 15078.92 0 00-45.52-3.096l-16.65-1.111-180.522-11.391 13.61-24.318zm1.813-3.236L84.546-442.5l212.802 13.436 9.01.707 20.011 1.554c11.067.865 22.312 1.763 33.435 2.733 22.831 2.068 43.32 4.842 62.632 8.476 20.221 3.81 41.399 8.983 62.944 15.371l3.649 1.094c20.05 6.058 39.671 12.726 55.436 18.217l9.894 3.449c16.614 5.751 37.219 12.581 57.93 18.105a358.64 358.64 0 0012.026 2.967c16.826 3.899 33.239 6.47 48.952 7.62l2.823.198c20.293 1.281 41.724.345 63.698-2.78 20.708-2.943 41.227-7.196 57.76-10.869l10.684-2.398c23.069-5.157 41.187-8.799 58.199-11.712 21.46-3.658 42.713-6.147 63.164-7.396 19.411-1.139 40.083-1.274 63.198-.412 10.916.44 21.966.957 32.846 1.483l23.88 1.163c2.17.105 4.34.209 6.52.311l209.27 13.212 14.24 26.07-223.16-14.089-11.85-.536-11.32-.519c-13.28-.599-26.79-1.163-40.142-1.528-22.717-.567-43.494.195-63.521 2.326-2.574.279-5.16.582-7.756.912-18.179 2.298-36.883 5.804-55.716 10.451-14.367 3.568-28.751 7.652-42.719 11.824-4.657 1.39-9.271 2.79-13.82 4.185l-8.669 2.669-3.7 1.129c-17.713 5.364-32.994 9.441-46.997 12.523a410.648 410.648 0 01-10.497 2.172c-21.665 4.194-42.857 5.679-62.987 4.414l-.486-.032c-19.977-1.304-41.052-5.435-62.644-12.285l-2.583-.829c-17.298-5.608-36.201-12.876-59.092-22.718l-6.243-2.691c-21.625-9.307-40.187-17.044-58.989-24.066-21.558-8.036-42.872-14.568-63.351-19.412a441.34 441.34 0 00-10.554-2.351l-4.558-.943a478.534 478.534 0 00-10.249-1.922c-12.086-2.145-24.551-3.891-37.652-5.255l-3.608-.359c-21.62-2.12-42.718-3.663-58.917-4.782-20.755-1.435-41.461-2.804-62.171-4.176L70.935-418.181zm29.038-51.871l196.947 12.434 13.053.985 13.066.971c12.102.895 24.216 1.794 36.344 2.75l4.206.347c22.207 1.862 40.876 3.953 58.45 6.542 20.393 3.012 41.566 7.055 62.933 12.016l3.641.852c20.609 4.858 40.812 10.228 56.819 14.577l8.276 2.249c16.505 4.462 37.068 9.802 58.035 14.278 21.19 4.521 40.997 7.407 60.434 8.798l2.846.192.418.027c20.479 1.291 41.297.96 63.641-1.009l3.646-.33c20.036-1.865 39.736-4.548 55.58-6.855l11.368-1.661c16.295-2.355 36.208-5.08 56.152-7.186 21.457-2.26 42.736-3.612 63.242-4.014l3.332-.056c17.849-.258 37.005.121 59.932 1.183 8.136.391 16.276.805 24.406 1.227l12.2.636c8.89.465 17.79.932 26.65 1.375l193.6 12.221 14.24 26.063-207.46-13.097-9.53-.459-26.01-1.267c-9.22-.441-18.53-.867-27.759-1.24-23.214-.865-43.982-.729-63.495.416-20.557 1.255-41.918 3.756-63.487 7.434l-3.567.619c-20.189 3.549-39.904 7.792-55.714 11.33l-9.912 2.222c-16.498 3.66-36.91 7.885-57.368 10.796-21.014 2.987-41.524 3.954-61 2.878l-2.766-.166c-19.865-1.297-40.889-4.876-62.498-10.64-20.714-5.533-41.216-12.329-57.73-18.047l-12.582-4.382c-16.265-5.644-36.24-12.38-56.51-18.412-21.661-6.422-42.948-11.619-63.265-15.45-19.354-3.646-39.94-6.435-62.938-8.518-12.983-1.132-26.122-2.166-38.95-3.162l-5.477-.424c-6.022-.467-12.041-.934-18.081-1.412L86.364-445.742l13.609-24.31zm15.418-27.554l243.52 15.369c5.139.522 10.28 1.023 15.423 1.516l7.717.736c12.972 1.234 26.386 2.51 39.594 4.013 19.02 2.166 38.817 5.032 58.905 8.529l4.021.708c19.174 3.412 38.367 7.279 54.324 10.594l16.033 3.352c16.319 3.393 36.273 7.382 56.306 10.744 22.334 3.759 43.197 6.229 63.608 7.503 20.476 1.292 41.28 1.46 63.596.513l3.638-.16c18.18-.835 36.135-2.159 51.177-3.385l17.121-1.427c21.451-1.762 38.649-2.948 54.89-3.792 21.63-1.09 42.931-1.503 63.312-1.224 9.9.137 19.923.414 29.792.72l21.679.687c3.951.12 7.895.233 11.825.334l241.168 15.225 14.23 26.065-191.73-12.105-13.09-.667-13.09-.681c-8.25-.431-16.49-.863-24.74-1.278l-12.38-.609-4.271-.191c-22.548-.979-41.454-1.275-59.193-.937-20.518.398-41.882 1.754-63.502 4.031l-3.574.383c-19.035 2.078-37.623 4.632-52.923 6.848l-15.53 2.264c-15.966 2.288-35.251 4.825-54.668 6.533-20.967 1.848-41.398 2.233-60.767 1.145l-3.243-.196c-19.262-1.257-38.857-3.992-59.789-8.349l-2.623-.553c-16.568-3.535-34.26-7.875-56.66-13.91l-15.614-4.232c-16.03-4.317-35.287-9.353-54.44-13.799-21.521-4.993-42.779-9.053-63.189-12.066l-3.317-.481c-17.765-2.535-36.798-4.589-59.549-6.432a5991.1 5991.1 0 00-24.251-1.851l-12.109-.9c-8.711-.646-17.414-1.291-26.131-1.957l-195.114-12.319 13.608-24.311zM1344.07-223.723l-222.77-14.063-14.97-.878c-10.7-.631-21.41-1.261-32.12-1.879l-16.08-.917-4.13-.225c-18.1-.969-38.7-1.794-59.278-.811-21.438 1.115-42.824 5.015-63.567 11.59-19.42 6.156-40.119 14.606-63.28 25.834a2579.756 2579.756 0 00-21.852 10.744l-17.86 8.879a2416.407 2416.407 0 01-23.341 11.457c-23.038 11.129-43.615 19.241-62.908 24.802-21.574 6.217-42.71 8.726-62.82 7.46l-.404-.026c-19.986-1.304-41.06-6.454-62.639-15.311-19.497-7.999-40.246-18.663-63.434-32.598-9.795-5.881-19.727-11.972-29.438-17.946l-14.539-8.945a3146.141 3146.141 0 00-19.619-11.971c-23.344-14.111-44.126-25.169-63.535-33.807-20.859-9.285-42.155-15.973-63.304-19.882-21.352-3.885-42.739-5.725-62.672-7.136-14.006-.981-27.99-1.927-41.947-2.864l-20.225-1.353-228.09-14.397 13.601-24.299 214.086 13.51 1.398.093c20.199 1.354 40.454 2.708 60.757 4.14l6.32.459c18.031 1.345 37.08 3.087 56.032 6.134 21.269 3.488 42.317 9.367 62.56 17.474 19.525 7.816 40.165 18.011 63.097 31.166 10.13 5.81 20.403 11.869 30.52 17.876l10.055 5.979c7.662 4.558 15.325 9.118 22.992 13.627l3.81 2.227c22.088 12.82 41.777 22.699 60.079 30.152 21.329 8.691 42.187 13.847 62.036 15.337l2.021.139c20.471 1.285 41.948-1.23 63.833-7.475 16.806-4.795 34.778-11.536 54.71-20.528a610.089 610.089 0 008.664-3.993l12.342-5.843 19.597-9.326c10.304-4.895 20.769-9.822 31.103-14.504 22.754-10.307 43.331-17.902 62.902-23.217 20.22-5.484 41.377-8.606 62.88-9.278 19.267-.561 38.307.117 60.717 1.334l9.11.511 15.39.886 16.67.977c8.27.49 16.42.978 24.35 1.456l208.97 13.192 14.22 26.037zm7.41 13.458l-8.4 15.006-221.35-13.972-8.78-.525c-12.07-.719-24.15-1.44-36.23-2.145l-18.13-1.044c-19.13-1.078-41.38-2.103-63.441-.638-20.91 1.447-42.292 5.919-63.555 13.29-19.092 6.618-39.778 15.507-63.24 27.173a4047.083 4047.083 0 00-13.179 6.594l-17.303 8.692c-10.781 5.404-21.732 10.843-32.549 16.015-22.798 10.902-43.377 18.849-62.908 24.299-20.962 5.84-41.544 8.272-61.202 7.236l-2.053-.122c-19.999-1.305-41.069-6.347-62.632-14.985-19.651-7.87-40.397-18.367-63.427-32.087-14.985-8.928-30.21-18.376-44.935-27.516a7008.701 7008.701 0 00-18.646-11.545c-23.65-14.573-44.43-26.058-63.529-35.111-21.339-10.106-42.645-17.376-63.335-21.61-21.175-4.252-42.652-6.144-62.707-7.555-14.572-1.017-29.12-1.997-43.639-2.965l-18.531-1.234-223.555-14.109-10.43-19.092 3.634-6.498L237.37-290.2l1.684.114c20.103 1.345 40.264 2.695 60.471 4.105 19.898 1.413 41.221 3.25 62.325 7.091 20.893 3.862 41.944 10.473 62.563 19.654 19.265 8.575 39.923 19.565 63.154 33.603a3204.665 3204.665 0 0119.581 11.949l19.41 11.939c8.159 5.012 16.431 10.069 24.613 14.982 23.39 14.053 44.29 24.791 63.897 32.832 21.347 8.753 42.222 13.942 62.093 15.435l1.971.136c20.473 1.286 41.95-1.261 63.835-7.57 19.44-5.6 40.169-13.77 63.367-24.972 9.298-4.493 18.724-9.163 27.94-13.745l13.237-6.581a2601.12 2601.12 0 0121.88-10.76c23.043-11.169 43.615-19.568 62.892-25.678 20.538-6.508 41.677-10.362 62.822-11.454 19.915-.952 39.625-.276 63.095 1.032 21 1.185 41.99 2.434 62.94 3.681l224.91 14.196 5.43 9.946zm-23.86 42.576l-205.49-12.97c-21.02-1.271-42.07-2.538-63.14-3.746l-4.68-.263c-18.81-1.029-38.7-1.742-58.777-.117-20.577 1.725-41.955 6.538-63.538 14.311-19.004 6.844-39.09 15.577-63.215 27.482l-20.649 10.206c-14.011 6.912-28.287 13.877-42.378 20.356-22.625 10.406-43.205 17.96-62.918 23.1-21.488 5.603-42.639 7.799-62.871 6.532l-.444-.029c-20.082-1.31-41.148-6.145-62.621-14.368-19.817-7.593-40.554-17.696-63.398-30.889-16.519-9.544-33.276-19.759-49.611-29.769l-13.931-8.54-3.548-2.164c-21.703-13.188-40.111-23.436-57.45-31.983l-2.528-1.242c-21.664-10.548-42.973-18.158-63.338-22.616-19.804-4.309-39.404-6.264-62.741-7.878a20907.282 20907.282 0 00-62.168-4.164L30.342-249.56 16.1-275.637l221.706 13.992 31.894 2.132c10.074.679 20.161 1.365 30.259 2.066l5.233.376c18.42 1.366 37.886 3.267 57.071 7.126 20.431 4.173 41.485 11.359 62.575 21.358l3.182 1.522c18.118 8.754 37.791 19.706 60.015 33.405 4.108 2.532 8.217 5.076 12.327 7.626l6.166 3.827c14.785 9.177 30.073 18.666 45.131 27.636 23.198 13.811 44.101 24.385 63.904 32.324 21.276 8.531 42.112 13.603 61.97 15.094l2.078.144c20.485 1.287 41.958-1.15 63.826-7.243 19.667-5.479 40.398-13.485 63.38-24.474 10.819-5.173 21.765-10.609 32.54-16.01l10.707-5.377c6.61-3.321 13.217-6.644 19.826-9.932l3.863-1.909c21.747-10.677 41.096-18.91 59.035-25.124 21.022-7.289 42.15-11.707 62.792-13.133 20.381-1.357 40.981-.563 59.081.419l3.98.221c11.71.663 23.41 1.349 35.09 2.042l28.02 1.668 219.48 13.855-13.61 24.317zm-15.39 27.564l-252.82-15.959-6.35-.304c-17.87-.835-37.58-1.499-57.087.252-20.333 1.826-41.705 6.722-63.525 14.552l-2.624.951c-17.556 6.422-36.392 14.467-58.887 25.148l-13.575 6.463c-16.891 8.025-34.139 16.117-51.151 23.472-22.478 9.716-43.065 16.736-62.942 21.464-21.418 5.094-42.585 7.028-62.912 5.753l-.482-.031c-20.161-1.316-41.22-5.889-62.603-13.592-19.983-7.202-40.717-16.772-63.386-29.259-17.857-9.841-35.693-20.332-53.118-30.69l-10.402-6.192c-24.587-14.644-44.761-25.702-63.489-34.794-21.833-10.599-43.14-18.293-63.328-22.862-21.745-4.924-43.793-6.715-62.754-8.007-20.768-1.416-41.485-2.775-62.169-4.132l-192.14-12.126-14.237-26.065 205.997 13.001c20.663 1.362 41.385 2.736 62.154 4.165l4.444.315c21.265 1.549 39.487 3.505 57.839 7.496 20.139 4.419 41.198 11.94 62.598 22.359l1.347.66 1.352.666c18.151 8.966 37.467 19.785 60.507 33.889l8.513 5.216a7824.887 7824.887 0 0016.925 10.351c8.084 4.93 16.225 9.864 24.368 14.693 2.015 1.195 4.021 2.354 6.034 3.536l5.196 3.053 2.606 1.517c22.991 13.283 43.888 23.462 63.889 31.122 21.161 8.104 41.942 12.963 61.81 14.454l2.203.152c20.548 1.288 42.018-.94 63.811-6.62 19.887-5.186 40.623-12.798 63.4-23.272 14.107-6.488 28.388-13.455 42.404-20.369l20.694-10.227c23.966-11.835 43.958-20.527 62.914-27.354 21.342-7.687 42.467-12.447 62.785-14.15 21.531-1.742 42.941-.765 63.031.385 21.07 1.209 42.12 2.474 63.13 3.747l203.63 12.852-13.6 24.321zm-15.45 27.55l-236.93-14.956-6.36-.322c-17.88-.884-37.6-1.602-57.097.119-20.235 1.784-41.605 6.526-63.514 14.095l-2.457.856c-16.865 5.922-35.28 13.388-57.479 23.298l-3.276 1.468a3750.567 3750.567 0 01-21.939 9.799l-3.868 1.705c-3.227 1.419-6.444 2.82-9.655 4.207a1315.758 1315.758 0 01-14.466 6.148c-2.379.99-4.756 1.972-7.131 2.94l-5.989 2.427c-22.396 8.942-42.992 15.353-62.968 19.6-21.37 4.543-42.553 6.196-62.956 4.919-20.417-1.296-41.649-5.586-63.11-12.794-20.078-6.742-40.802-15.707-63.358-27.405-3.09-1.603-6.181-3.23-9.27-4.872-15.237-8.095-30.577-16.683-45.387-25.082l-12.402-7.046c-16.576-9.385-31.037-17.179-44.306-23.867l-1.417-.712a652.449 652.449 0 00-14.166-6.899c-21.95-10.354-43.252-17.892-63.307-22.399-20.608-4.63-40.608-6.391-62.759-8.066l-238.59-15.058-14.233-26.064L238.7-204.524c20.656 1.355 41.369 2.711 62.136 4.129l3.941.273c17.919 1.272 38.287 3.125 58.33 7.662 19.926 4.511 40.991 12.118 62.613 22.612l2.601 1.27c17.848 8.775 37.205 19.435 60.627 33.384l10.45 6.22c17.502 10.403 35.396 20.928 53.175 30.717 22.833 12.58 43.725 22.223 63.87 29.48 21.014 7.575 41.728 12.16 61.616 13.648l2.356.162c20.622 1.296 42.084-.666 63.792-5.828 20.042-4.763 40.786-11.837 63.421-21.623 18.823-8.136 37.907-17.16 56.485-26.006l6.645-3.167 5.02-2.379c22.046-10.376 40.563-18.178 57.919-24.413 21.558-7.742 42.686-12.586 62.794-14.392 21.648-1.944 43.638-.879 63.008.059l250.89 15.838-13.61 24.303zm-15.39 27.556l-221.1-13.957-8.52-.447c-17.32-.875-36.25-1.538-54.923-.093-20.443 1.583-41.218 5.833-63.517 12.995l-2.36.764c-17.357 5.665-35.817 12.629-59.261 22.354l-8.335 3.463c-17.485 7.246-37.079 15.207-56.344 22.21-22.336 8.12-42.943 13.894-63.003 17.654-21.299 3.997-42.494 5.373-62.999 4.085l-.513-.034-2.554-.205c-1.572-.12-3.141-.235-4.722-.385-14.758-1.429-29.878-4.234-45.103-8.376-.769-.21-1.534-.398-2.305-.614l-.53-.157a302.499 302.499 0 01-7.409-2.195c-20.158-6.265-40.877-14.593-63.345-25.464l-3.752-1.825c-18.135-8.866-36.316-18.413-57.501-29.766l-5.424-2.905c-23.932-12.781-42.613-22.072-60.207-29.952-22.325-9.995-43.023-16.956-63.279-21.277-20.721-4.418-41.494-6.169-62.737-7.713L78.772-160.924l-14.24-26.074 236.725 14.943 7.262.561c19.172 1.526 36.891 3.36 55.025 7.435 19.825 4.457 40.894 11.914 62.621 22.164a675.21 675.21 0 0119.23 9.463l2.242 1.149c12.049 6.208 25.153 13.345 39.953 21.748l9.481 5.392c15.505 8.803 31.657 17.858 47.858 26.438 2.695 1.426 5.384 2.837 8.066 4.228 22.706 11.78 43.587 20.81 63.837 27.61 20.875 7.008 41.535 11.304 61.457 12.783l2.471.17c20.679 1.297 42.132-.377 63.768-4.976 20.138-4.28 40.89-10.74 63.442-19.745l2.409-.988a991.237 991.237 0 0016.748-6.93c2.844-1.205 5.692-2.424 8.545-3.658l4.733-2.053 6.82-2.988 2.081-.92a3959.98 3959.98 0 0016.342-7.273l8.748-3.924c23.187-10.353 42.233-18.028 59.706-24.062 21.685-7.493 42.816-12.186 62.814-13.95 21.674-1.914 43.654-.779 63.024.22l235.05 14.837-13.6 24.305zm-30.87 55.1l-189.35-11.95-6.46-.373c-4.27-.242-8.46-.472-12.61-.685l-4.99-.252-2.92-.136-4.94-.218c-10.59-.441-20.96-.716-31.445-.71l-.117.005c-21.696 1.633-43.048 5.034-63.465 10.108l-3.522.888c-16.124 4.118-33.397 9.285-54.963 16.44l-14.328 4.787c-2.331.777-4.628 1.539-6.897 2.288l-5.672 1.863-3.827 1.246-5.47 1.77-2.74.875-5.003 1.586-2.986.936-5.052 1.569-2.749.838-5.423 1.64c-1.462.438-2.925.863-4.388 1.292-1.135.334-2.273.674-3.409 1.001-22.278 6.44-42.913 10.947-63.081 13.784a326.401 326.401 0 01-15.914 1.843c-15.723 1.425-31.363 1.669-46.685.736l-.518-.026c-18.585-1.242-37.716-4.18-56.921-8.88l-2.401-.596c-1.273-.323-2.547-.628-3.823-.964-20.257-5.358-40.966-12.428-63.314-21.62-19.91-8.182-40.178-17.277-59.312-26.018l-7.374-3.37c-23.89-10.88-42.532-18.741-60.071-25.343-20.416-7.677-41.663-13.848-63.263-18.362-19.245-2.607-38.648-4.159-55.941-5.362l-6.999-.477-191.134-12.061L96.8-127.904l205.329 12.959 6.303.446c17.975 1.296 36.907 2.9 55.93 5.795 21.234 5.038 42.323 11.884 62.688 20.343l3.497 1.465c16.403 6.927 34.099 15.156 56.459 26.257l3.226 1.606c20.307 10.125 42.061 20.824 63.552 30.442 22.524 10.082 43.379 17.83 63.765 23.685 21.317 6.125 42.564 9.91 63.164 11.255l.674.043c20.8 1.303 42.238.184 63.723-3.33 20.271-3.314 41.033-8.486 63.473-15.81 19.349-6.322 38.463-13.31 60.967-21.796l2.262-.853c25.399-9.587 44.839-16.201 63.033-21.45 20.354-5.872 41.504-9.961 62.869-12.155 20.666-.336 41.636.728 63.076 1.941l203.34 12.838-13.61 24.304zM1233.28.904l-13.6 24.304-157.64-9.948c-19.23-1.219-38.1-2.368-57.02-3.07l-6.392-.22c-20.96.422-42.31 2.048-63.524 4.841-19.134 3.457-38.993 7.7-60.622 12.951l-13.075 3.197c-17.357 4.234-35.119 8.493-52.866 12.304-22.352 4.799-43.015 8.09-63.167 10.065-20.388 1.993-40.755 2.443-60.584 1.337l-3.506-.211c-20.38-1.33-41.337-4.366-62.303-9.028-20.231-4.494-40.937-10.358-63.304-17.926l-4.194-1.425c-17.443-5.959-34.565-12.2-54.348-19.487l-4.8-1.769c-22.772-8.397-43.468-15.447-63.34-21.572-21.094-5.51-42.29-9.9-63.082-13.06-19.678-1.98-39.603-3.352-58.497-4.559L143.308-42.729l-14.235-26.063 178.671 11.28c21.122 1.366 39.27 2.755 57.556 4.871 20.523 3.662 41.612 8.762 62.605 15.138l4.028 1.46c17.536 6.392 36.167 13.688 56.74 22.216l13.862 5.75C521.21-.364 537.758 6.29 554.532 12.58c22.513 8.439 43.346 14.946 63.692 19.89a384.225 384.225 0 0031.9 6.35c1.735.267 3.463.505 5.195.749l2.559.366c1.821.243 3.635.453 5.449.665l2.476.3 1.778.18 1.777.173c1.547.155 3.095.315 4.637.449l.822.062c2.108.178 4.215.349 6.314.486l.847.053c20.875 1.3 42.298.671 63.673-1.87 20.326-2.413 41.097-6.339 63.496-12 20.168-5.096 40.698-10.986 58.81-16.278l4.476-1.31C895.39 4.119 916.039-1.367 935.476-5.91c21.178-3.691 42.382-6.038 63.024-6.975 20.18.352 40.32 1.507 59.36 2.712L1233.28.904zm-30.85 55.091l-13.6 24.313-144.79-9.134c-15.35-.958-29.9-1.835-44.49-2.63a813.923 813.923 0 00-63.511.847c-20.233 1.8-40.972 4.215-63.423 7.385l-21.596 3.3c-13.82 2.102-27.858 4.202-41.724 6.127-22.678 3.145-43.37 5.226-63.26 6.36-21.314 1.217-42.593 1.176-63.245-.118-20.73-1.328-41.952-3.919-63.271-7.798-19.962-3.628-40.668-8.291-63.302-14.253-17.057-4.491-34.35-9.271-51.219-13.958l-12.09-3.36c-22.286-5.95-42.951-10.981-63.23-15.393a842.079 842.079 0 00-62.954-9.015l-5.633-.414c-19.714-1.433-39.349-2.671-56.846-3.77l-128.654-8.118-14.244-26.078 142.633 9c14.787.932 29.339 1.875 43.796 2.961l5.514.428 5.505.444c2.476.2 4.958.389 7.433.602 20.617 2.621 41.704 6.287 62.613 10.878 20.249 5.274 41.466 11.454 63.056 18.37l20.279 6.499c14.254 4.557 28.76 9.147 43.1 13.458l2.227.66 2.216.652c18.709 5.523 36.239 10.006 53.266 13.617l2.551.535c1.112.23 2.231.472 3.34.697 20.44 4.131 40.86 6.966 60.824 8.309l2.855.182c20.786 1.303 42.196 1.126 63.632-.524 20.098-1.548 40.871-4.246 63.502-8.248a1683.38 1683.38 0 0013.526-2.453c2.413-.447 4.825-.91 7.237-1.367 2.013-.379 4.028-.753 6.039-1.137a4476.7 4476.7 0 0016.555-3.204l19.973-3.915c21.608-4.221 42.872-7.73 63.14-10.416a673.743 673.743 0 0163.112-2.734c18.478.817 36.738 1.914 56.578 3.164l146.58 9.25zM159.459-13.179l-14.235-26.065 158.203 9.983c19.865 1.255 41.049 2.654 62.336 4.792 20.595 3.134 41.683 7.501 62.608 12.964 19.735 6.088 40.374 13.118 63.101 21.495l10.402 3.831c16.796 6.176 35.022 12.797 53.026 18.88 22.486 7.607 43.303 13.501 63.639 18.024 21.12 4.694 42.228 7.752 62.756 9.092l.958.06c20.801 1.307 42.218.904 63.654-1.19 20.266-1.98 41.037-5.289 63.499-10.119 21.523-4.628 43.723-10.061 63.307-14.855l5.02-1.218c20.776-5 39.839-9.053 58.071-12.347 21.043-2.77 42.278-4.387 63.043-4.809 20.993.667 41.893 1.934 63.233 3.286l155.79 9.831-13.61 24.298-155.9-9.83c-16.72-1.035-31.75-1.907-47.11-2.605l-2.157-.094a673.854 673.854 0 00-63.517 2.751c-20.388 2.702-41.712 6.22-63.38 10.452l-20.581 4.034a4101.231 4101.231 0 01-15.777 3.054 1955.29 1955.29 0 01-26.921 4.978c-22.535 3.985-43.212 6.67-63.211 8.21-21.296 1.643-42.561 1.818-63.208.524-20.586-1.277-41.923-4.133-63.241-8.435l-1.807-.373-1.811-.38c-17.269-3.599-35.036-8.089-54.026-13.66l-3.767-1.108c-.63-.187-1.262-.375-1.898-.566-14.371-4.326-28.916-8.927-43.21-13.497l-20.111-6.443c-21.659-6.936-42.932-13.132-63.291-18.434C408.268 6.704 387.087 3.022 366.32.382l-2.545-.206c-17.624-1.488-35.273-2.68-53.219-3.822l-22.124-1.398-128.973-8.136zm-46.517-85.18l189.275 11.944 6.981.476c17.242 1.2 36.578 2.746 55.629 5.324a427.055 427.055 0 0162.669 18.2l2.327.88c16.342 6.217 33.889 13.636 56.008 23.684l13.023 5.944c17.939 8.169 36.769 16.57 55.305 24.19 22.493 9.244 43.339 16.361 63.724 21.756 1.109.293 2.217.556 3.325.838 1.571.399 3.143.81 4.714 1.187l.593.136c17.553 4.177 35.024 6.925 52.091 8.173l2.702.184.863.047c15.457.947 31.253.7 47.143-.742a327.965 327.965 0 0016.068-1.859c20.266-2.841 41.032-7.38 63.487-13.87l1.699-.498 6.113-1.804 2.624-.793c1.861-.56 3.724-1.124 5.595-1.698l4.978-1.546 4.097-1.286 4.855-1.543 4.956-1.594 4.565-1.48 7.565-2.484 7.69-2.551 13.312-4.447c23.079-7.659 41.214-13.028 58.274-17.267 20.189-5.02 41.356-8.393 62.915-10.024l3.443.019c1.44.008 2.87.008 4.31.025l2.01.038c1.94.027 3.88.057 5.83.102l1.99.058c1.94.05 3.87.102 5.8.166l2.97.111c1.61.057 3.22.114 4.84.182l5.63.251 3.85.184c7.44.368 14.91.796 22.44 1.242l187.49 11.833-13.6 24.305-173.49-10.948c-20.32-1.289-41.95-2.577-63.45-2.945-20.815.947-42.163 3.308-63.528 7.03C915.073-4.654 894.372.846 871.36 7.587l-7.614 2.226c-17.9 5.219-36.698 10.574-55.566 15.335-22.243 5.618-42.891 9.522-63.124 11.929-21.23 2.526-42.469 3.153-63.126 1.856-20.557-1.254-41.892-4.567-63.206-9.748-20.267-4.926-40.976-11.395-63.313-19.772-19.037-7.136-37.86-14.807-55.755-22.22l-12.378-5.132c-21.293-8.784-40.492-16.245-58.615-22.775-21.259-6.452-42.475-11.584-63.151-15.27-19.872-2.297-39.394-3.736-62.557-5.204l-175.769-11.09-14.244-26.08zM301.697-143.5c21.141 1.537 41.812 3.276 62.293 7.652 20.044 4.282 40.528 11.17 62.619 21.059l2.341 1.055c16.83 7.618 34.841 16.612 57.651 28.792l11.92 6.38c19.935 10.638 37.34 19.696 54.88 28.18 22.619 10.941 43.492 19.33 63.808 25.647 4.333 1.35 8.656 2.558 12.97 3.69 1.042.272 2.088.568 3.129.829l1.923.454c12.77 3.112 25.438 5.292 37.876 6.484 1.929.188 3.849.328 5.77.47l2.213.178c20.76 1.303 42.205-.089 63.746-4.133 20.214-3.788 40.973-9.602 63.459-17.778 17.638-6.41 35.535-13.616 51.844-20.344l14.547-6.032c23.714-9.805 42.273-16.748 59.807-22.379 22.061-7.09 42.617-11.298 62.842-12.863 21.655-1.676 43.645-.492 63.035.553l219.17 13.835-13.6 24.305-205.22-12.955-6.67-.37c-19.83-1.083-38.12-1.88-56.833-1.57-21.561 2.212-42.908 6.338-63.444 12.265l-2.351.683c-16.502 4.837-34.082 10.8-56.114 19.038l-13.102 4.931c-16.968 6.369-35.895 13.308-54.793 19.476-22.297 7.277-42.919 12.415-63.041 15.705-21.261 3.475-42.472 4.586-63.044 3.295l-.471-.03c-1.11-.075-2.231-.178-3.344-.266l-2.699-.206c-.45-.036-.9-.075-1.351-.117-11.455-1.07-23.086-2.884-34.796-5.416l-4.622-1.016c-.778-.18-1.556-.386-2.336-.575a319.264 319.264 0 01-13.541-3.553c-20.187-5.795-40.9-13.49-63.322-23.525-19.926-8.917-40.201-18.827-59.341-28.348l-4.083-2.034c-25.593-12.762-45.144-21.836-63.395-29.424a413.766 413.766 0 00-63.319-20.53c-21.507-3.279-42.726-4.907-62.626-6.296L94.898-131.379 80.66-157.451 301.697-143.5zM-1.602-301.438l10.447 19.12-.032-.003 18.032 33.014.008.001 32.274 59.086h.008l14.245 26.081-.008-.001 18.03 33.014h.003l16.138 29.552h.007l14.255 26.1-.016-.001 18.032 33.016h.015l14.235 26.065h-.006l18.027 33.014 151.318 9.553c13.438.866 27.556 1.812 41.593 2.86a838.992 838.992 0 0162.62 8.966c20.173 4.39 40.791 9.407 63.012 15.341l5.771 1.606c18.856 5.241 38.354 10.661 57.566 15.722 22.715 5.983 43.5 10.662 63.545 14.308 19.894 3.616 39.763 6.15 59.132 7.537l4.502.305c20.776 1.3 42.176 1.34 63.611.117 19.971-1.14 40.744-3.226 63.501-6.383 13.882-1.928 27.93-4.029 41.758-6.133l21.586-3.296c22.383-3.16 43.072-5.571 63.2-7.362a812.336 812.336 0 0163.175-.842l5.558.307c13.89.777 27.87 1.63 42.65 2.556l142.84 9.015 15.42-27.549.02.001 17.23-30.788 15.41-27.54v-.001l15.44-27.586h-.01l15.42-27.54v-.001l13.6-24.312.03.002 17.23-30.791-.03-.002 13.62-24.315.02.001 17.22-30.805-.02-.001 13.63-24.342.03.001 10.2-18.234-7.35-13.462-.06-.003-14.23-26.059.04.003-18.03-33.016-.04-.002-14.24-26.091.03.003-18.04-33.016v-.001l-14.24-26.07v.001l-18.03-33.014-.02-.002-16.13-29.532-243.077-15.346c-5.272-.135-10.546-.294-15.821-.459l-17.731-.564c-8.233-.256-16.575-.492-24.868-.644l-4.97-.08c-20.445-.278-41.814.136-63.51 1.228l-6.313.344c-15.296.866-31.763 2.048-52.001 3.732l-10.974.92c-16.539 1.367-37.002 2.905-57.512 3.767-22.207.945-42.903.778-63.272-.508-19.482-1.193-39.262-3.512-60.397-6.984l-2.89-.48c-19.901-3.341-39.736-7.304-55.989-10.681l-16.233-3.395c-15.979-3.321-35.2-7.193-54.41-10.609-21.532-3.832-42.77-6.949-63.121-9.267-9.93-1.13-19.965-2.131-29.841-3.081l-9.812-.937a3828.95 3828.95 0 01-23.177-2.254l-245.429-15.493-30.841 55.106h-.003L32.873-363.04l.01.001-13.615 24.324-.01-.001-20.86 37.278z" fill="url(#prefix__paint0_linear_31_653)"/><defs><linearGradient id="prefix__paint0_linear_31_653" x1="220.004" y1="88.834" x2="953.198" y2="306.51" gradientUnits="userSpaceOnUse"><stop stop-color="#5D5DFF" stop-opacity=".01"/><stop offset=".538" stop-color="#5D5DFF" stop-opacity=".32"/><stop offset="1" stop-color="#5D5DFF" stop-opacity=".01"/></linearGradient></defs></svg>
