<svg width="24" height="24" viewBox="0 0 24 24" fill="none" xmlns="http://www.w3.org/2000/svg">
<path d="M18 3.04229V1.09863" stroke="#CBCCFF" stroke-width="2" stroke-linecap="square"/>
<path d="M20.1211 3.89663L21.5361 2.52148" stroke="#CBCCFF" stroke-width="2" stroke-linecap="square"/>
<path d="M21 5.95784H23" stroke="#CBCCFF" stroke-width="2" stroke-linecap="square"/>
<path d="M20.1211 8.01904L21.5361 9.39418" stroke="#CBCCFF" stroke-width="2" stroke-linecap="square"/>
<path d="M18 8.87329V10.817" stroke="#CBCCFF" stroke-width="2" stroke-linecap="square"/>
<path d="M15.8789 8.01904L14.4639 9.39418" stroke="#CBCCFF" stroke-width="2" stroke-linecap="square"/>
<path d="M15 5.95784H13" stroke="#CBCCFF" stroke-width="2" stroke-linecap="square"/>
<path d="M15.8789 3.89663L14.4639 2.52148" stroke="#CBCCFF" stroke-width="2" stroke-linecap="square"/>
<ellipse cx="18" cy="5.95773" rx="3" ry="2.91549" stroke="#CBCCFF" stroke-width="2" stroke-linecap="square"/>
<path d="M9.86 2.24536C4.8 3.0306 1 6.54085 1 10.8169C1 15.6761 5.9 19.5634 12 19.5634C13.0475 19.5841 14.0923 19.4531 15.1 19.1747L21 21.5071L20.4 16.4535C21.2506 15.6347 21.9272 14.6612 22.391 13.5886" stroke="#F4F4FF" stroke-width="2" stroke-linecap="square"/>
</svg>
