<svg width="19" height="19" viewBox="0 0 19 19" fill="none" xmlns="http://www.w3.org/2000/svg">
<path d="M14.7071 12.1436L17.3552 14.7918C17.7113 15.1479 17.7113 15.7252 17.3552 16.0813C15.43 18.0065 12.3821 18.2231 10.204 16.5895L8.62857 15.408C6.88504 14.1003 5.33622 12.5515 4.02857 10.808L2.84701 9.23253C1.21341 7.0544 1.43001 4.00651 3.35523 2.08129C3.71133 1.7252 4.28867 1.7252 4.64477 2.08129L7.29289 4.72942C7.68342 5.11994 7.68342 5.75311 7.29289 6.14363L6.27175 7.16478C6.10946 7.32706 6.06923 7.57498 6.17187 7.78026C7.35853 10.1536 9.28294 12.078 11.6563 13.2647C11.8615 13.3673 12.1095 13.3271 12.2717 13.1648L13.2929 12.1436C13.6834 11.7531 14.3166 11.7531 14.7071 12.1436Z" stroke="#F4F4FF" stroke-width="2"/>
</svg>
