<svg viewBox="0 0 50 50" fill="none" xmlns="http://www.w3.org/2000/svg"><path d="M25.045 0c-4.936 0-9.76 1.466-13.864 4.213a24.99 24.99 0 00-9.192 11.22A25.042 25.042 0 00.57 29.877a25.014 25.014 0 006.83 12.8 24.941 24.941 0 0012.777 6.843c4.841.964 9.859.47 14.419-1.423a24.965 24.965 0 0011.2-9.208A25.032 25.032 0 0042.69 7.322 24.932 24.932 0 0025.045 0zm0 34.575a9.546 9.546 0 01-5.31-1.614 9.572 9.572 0 01-3.52-4.297 9.591 9.591 0 012.072-10.434 9.552 9.552 0 0110.416-2.076 9.562 9.562 0 014.289 3.526 9.587 9.587 0 01-1.189 12.09 9.554 9.554 0 01-6.758 2.805z" fill="url(#prefix__paint0_linear_43_1183)"/><path d="M34.598 25.295a25.03 25.03 0 01-4.849 14.531 24.956 24.956 0 01-12.4 8.969l-.31-.1h-.055A24.963 24.963 0 013.789 38.247 25.037 25.037 0 017.87 6.783 24.933 24.933 0 0123.293.06C14.47 1.765 14.958 22.56 15.487 25c.03 12.345 18.712 12.61 19.11.295z" fill="url(#prefix__paint1_linear_43_1183)"/><defs><linearGradient id="prefix__paint0_linear_43_1183" x1="44.26" y1="44.26" x2="12.79" y2="12.79" gradientUnits="userSpaceOnUse"><stop stop-color="#00B3EE"/><stop offset="1" stop-color="#C200AF"/></linearGradient><linearGradient id="prefix__paint1_linear_43_1183" x1="27.451" y1="43.225" x2="14.834" y2="21.415" gradientUnits="userSpaceOnUse"><stop stop-color="#6227D8"/><stop offset="1" stop-opacity="0"/></linearGradient></defs></svg>
