<svg viewBox="0 0 16 16" fill="none" xmlns="http://www.w3.org/2000/svg">
<path d="M12.8001 3.69995L12.8002 3.69995C13.081 3.6999 13.3511 3.80718 13.5553 3.99983C13.6824 4.11978 13.778 4.26717 13.836 4.42899L8.00014 7.34655L2.16428 4.42899C2.22225 4.26717 2.31785 4.11978 2.445 3.99983C2.64919 3.80718 2.91932 3.6999 3.20005 3.69995H3.20014L12.8001 3.69995Z" fill="#9CA3AF" stroke="#9CA3AF"/>
<path d="M14.4001 6.49438L8.0001 9.69438L1.6001 6.49438V11.2C1.6001 11.6243 1.76867 12.0313 2.06873 12.3314C2.36878 12.6314 2.77575 12.8 3.2001 12.8H12.8001C13.2244 12.8 13.6314 12.6314 13.9315 12.3314C14.2315 12.0313 14.4001 11.6243 14.4001 11.2V6.49438Z" fill="#9CA3AF"/>
</svg>
